<svg width="238" height="50" viewBox="0 0 238 50" fill="none" xmlns="http://www.w3.org/2000/svg">
<path d="M23.7522 26.8178C23.4543 27.2169 23.1317 27.5996 22.8611 28.0151C21.5873 29.9533 19.8296 31.2135 17.5991 31.8204C16.5631 32.1019 15.5325 32.3452 14.4364 32.3808C12.1949 32.4546 10.0081 32.2714 7.89506 31.4787C7.68457 31.3994 7.49323 31.2654 7.28821 31.1698C4.67497 29.9396 2.94465 27.862 1.65169 25.347C0.954642 23.9911 0.621152 22.545 0.366934 21.0579C-0.054028 18.6167 -0.119632 16.1701 0.205657 13.7207C0.684023 10.126 2.00978 6.91117 4.60389 4.30871C7.1488 1.75546 10.2787 0.495241 13.8405 0.148064C15.2154 0.0141145 16.5767 -0.097966 17.9408 0.134396C19.1353 0.336688 20.3463 0.506175 21.5025 0.850617C23.3203 1.39735 24.9796 2.28579 26.483 3.47221C28.2625 4.87731 29.6867 6.56672 30.6571 8.61151C31.581 10.5606 32.3573 12.5781 32.7018 14.7131C32.8986 15.9377 33.0325 17.1816 33.1637 18.4199C33.4644 21.2657 33.3223 24.0814 33.12 26.908C33.0763 27.5094 32.9177 28.0998 32.8275 28.6985C32.74 29.2644 32.6498 29.833 32.5979 30.4043C32.423 32.3261 31.8216 34.1331 31.2339 35.9619C30.258 38.9881 28.6862 41.6397 26.5459 43.9551C24.3919 46.2842 21.6638 47.7194 18.6843 48.7035C17.0797 49.2339 15.445 49.6275 13.7585 49.7806C10.4345 50.0813 7.11327 50.1196 3.80571 49.5974C3.6663 49.5756 3.53235 49.5209 3.32461 49.4608V41.3117C3.72917 41.3609 4.11459 41.35 4.46448 41.4593C5.49776 41.7873 6.55836 41.8693 7.62717 41.8748C9.14974 41.883 10.686 41.9951 12.1894 41.8201C13.466 41.6698 14.7125 41.2133 15.9535 40.8251C18.8811 39.912 20.9886 38.0203 22.2816 35.2593C22.9595 33.8105 23.4953 32.3042 23.6292 30.675C23.7304 29.4284 23.9381 28.1901 24.0966 26.9462C24.083 26.6428 23.9518 26.651 23.7604 26.8178H23.7522ZM9.70738 16.7879C9.74018 17.7201 9.76205 18.7124 10.0053 19.7239C10.5028 21.7769 12.3698 24.1087 14.8491 24.3465C17.4733 24.5953 19.7148 23.9474 21.5517 22.042C22.5276 21.0306 23.1208 19.8196 23.3149 18.4117C23.4625 17.321 23.2903 16.2658 23.1044 15.1969C22.7627 13.2423 21.9399 11.5365 20.5567 10.115C17.7713 7.25014 12.225 7.61372 10.3662 12.3894C9.81946 13.7945 9.70738 15.2379 9.70465 16.7879H9.70738Z" fill="white"/>
<path d="M59.6385 26.8177C59.3406 27.2169 59.018 27.5996 58.7474 28.0151C57.4763 29.956 55.7132 31.2108 53.4827 31.8204C52.4466 32.1047 51.4161 32.3452 50.3172 32.3835C48.0757 32.4573 45.8889 32.2714 43.7759 31.4787C43.5654 31.3994 43.3741 31.2654 43.1691 31.1698C40.5558 29.9396 38.8255 27.862 37.5325 25.3443C36.8355 23.9884 36.5047 22.5396 36.2478 21.0552C35.8268 18.614 35.7612 16.1674 36.0865 13.718C36.5567 10.1861 37.8496 7.01504 40.3645 4.42898C42.9258 1.79646 46.1021 0.5007 49.7268 0.148057C51.1018 0.0141068 52.4576 -0.0651703 53.8298 0.123453C55.1446 0.303875 56.4567 0.514368 57.7141 0.938087C59.3461 1.48756 60.8386 2.31312 62.2217 3.35465C64.1133 4.77616 65.5594 6.55578 66.568 8.67711C67.4838 10.5989 68.2218 12.5945 68.5854 14.6967C68.7986 15.9213 68.7794 17.187 69.0091 18.4062C69.3425 20.1831 69.2004 21.96 69.1895 23.7369C69.1785 25.4864 68.9216 27.2087 68.6865 28.9445C68.4542 30.6449 68.2519 32.3452 67.7626 33.9854C67.1093 36.1724 66.3493 38.3265 65.1821 40.3057C62.7247 44.4663 59.1656 47.241 54.5706 48.7035C52.9606 49.2147 51.3286 49.6248 49.6421 49.7778C46.3181 50.0813 42.9969 50.1196 39.6866 49.5947C39.5472 49.5728 39.4132 49.5209 39.2027 49.4607V41.3117C39.6018 41.3581 39.99 41.3472 40.3371 41.4566C41.3704 41.7873 42.431 41.8666 43.4998 41.8721C45.0224 41.8803 46.5586 41.9924 48.0621 41.8174C49.3386 41.667 50.5851 41.2105 51.8261 40.8251C54.7537 39.912 56.864 38.0203 58.1542 35.2593C58.8322 33.8105 59.3679 32.3042 59.5019 30.675C59.6057 29.4284 59.8108 28.1873 59.9693 26.9462C59.9556 26.6428 59.8244 26.651 59.6331 26.8177H59.6385ZM45.6019 16.9711C45.6538 17.7064 45.5882 18.6769 45.8807 19.6583C46.1869 20.6834 46.616 21.6074 47.2612 22.4384C47.9391 23.3132 48.8439 23.9829 49.8963 24.2016C52.6216 24.7675 55.1419 24.2973 57.2057 22.2744C58.7611 20.7545 59.4691 18.9092 59.2203 16.7278C59.1602 16.2084 59.07 15.6944 58.9852 15.1778C58.6545 13.1904 57.7989 11.4627 56.3693 10.0385C53.592 7.27474 48.114 7.61371 46.247 12.4031C45.7003 13.8055 45.5828 15.2516 45.6019 16.9683V16.9711Z" fill="white"/>
<path d="M96.5819 25.1393C96.5245 24.1224 96.5682 23.0836 96.3878 22.0885C96.0543 20.2651 95.0484 18.9694 93.1732 18.4336C91.6014 17.9853 90.0378 18.111 88.4715 18.3625C86.0441 18.7534 83.737 19.5489 81.4901 20.5358C81.2823 20.626 81.0664 20.6971 80.7712 20.8091C79.6832 18.5129 78.6144 16.2548 77.4964 13.893C78.6253 13.4036 79.6532 12.9225 80.7083 12.5125C82.548 11.7935 84.4532 11.3534 86.4104 11.0281C88.3813 10.7028 90.344 10.4786 92.3258 10.5879C95.0101 10.7356 97.678 11.0663 100.119 12.3129C102.164 13.3572 103.957 14.7076 104.949 16.8672C105.706 18.5183 106.218 20.2487 106.302 22.0776C106.362 23.3925 106.428 24.7101 106.431 26.0277C106.444 32.5339 106.439 39.04 106.436 45.5461C106.436 46.4838 106.423 47.4214 106.414 48.3591C106.373 48.422 106.332 48.4848 106.289 48.5477H99.4056C98.796 46.9321 98.1728 45.2782 97.5031 43.5013C97.3062 43.679 97.1149 43.8239 96.9591 43.9989C96.3304 44.6932 95.7427 45.4286 95.0812 46.0901C93.3618 47.8069 91.1996 48.7172 88.8515 49.0179C86.9435 49.2639 84.9808 49.3459 83.0701 49.1874C81.8126 49.0835 80.5252 48.6406 79.3935 47.9408C77.2531 46.615 75.7059 44.7834 74.905 42.4024C74.3255 40.6802 74.1998 38.8732 74.2052 37.0472C74.2107 35.5272 74.4622 34.051 75.0198 32.6842C75.736 30.9237 76.9579 29.4913 78.6062 28.4689C80.547 27.2661 82.6819 26.6182 84.9043 26.189C88.5125 25.4947 92.1754 25.5548 95.8192 25.358C96.0242 25.347 96.2292 25.3306 96.4315 25.317C96.4807 25.2568 96.5299 25.1967 96.5819 25.1365V25.1393ZM96.4944 31.3201C94.7832 31.4131 93.1185 31.4923 91.4565 31.5989C90.2538 31.6755 89.0838 31.9215 87.9467 32.3316C84.538 33.5645 83.9749 36.5797 84.4888 38.8814C84.8222 40.3658 85.8528 41.3117 87.2551 41.6042C88.3458 41.8338 89.5485 41.8119 90.6529 41.626C93.1622 41.1996 95.0538 39.9202 95.9832 37.3834C96.262 36.6234 96.4479 35.8826 96.4807 35.1062C96.5327 33.887 96.4944 32.6651 96.4944 31.3174V31.3201Z" fill="white"/>
<path d="M206.373 32.5065C205.788 32.512 205.203 32.5175 204.615 32.5175C197.754 32.5175 190.896 32.5175 184.035 32.5202C183.78 32.5202 183.526 32.5448 183.225 32.5612C183.398 35.4425 184.185 37.9766 186.456 39.8273C187.378 40.5791 188.425 41.0875 189.619 41.3691C191.243 41.7491 192.847 41.5987 194.471 41.555C196.273 41.5058 198.014 41.1695 199.709 40.6146C201.029 40.1827 202.311 39.6223 203.609 39.1193C203.85 39.0263 204.09 38.9334 204.334 38.8377C204.517 39.4774 204.558 45.527 204.394 46.6888C203.027 47.4023 201.554 47.9162 200.05 48.3618C197.216 49.1983 194.299 49.3159 191.377 49.2448C189.805 49.2065 188.2 49.1737 186.678 48.8375C182.373 47.8889 178.71 45.8605 176.321 41.976C175.547 40.7158 174.721 39.4692 174.311 38.0313C174.041 37.08 173.871 36.0986 173.666 35.1309C173.144 32.6815 173.133 30.1993 173.325 27.7226C173.491 25.5712 173.806 23.4253 174.552 21.3914C175.99 17.4659 178.346 14.2921 182.189 12.384C183.635 11.6678 185.155 11.1566 186.741 10.9379C188.466 10.6973 190.201 10.3966 191.962 10.6727C193.503 10.916 195.045 11.0992 196.551 11.5885C198.867 12.3402 200.805 13.636 202.483 15.3555C203.639 16.5392 204.407 17.947 205.017 19.4888C205.482 20.6643 205.884 21.8452 206.089 23.0808C206.294 24.3137 206.463 25.563 206.507 26.8096C206.572 28.6548 206.515 30.5028 206.507 32.348C206.463 32.3999 206.417 32.4519 206.373 32.5038V32.5065ZM183.461 25.656H197.218C197.218 25.3525 197.265 25.0846 197.21 24.8386C197.002 23.9173 196.8 22.9906 196.527 22.0858C196.046 20.4893 195.01 19.3193 193.523 18.6058C192.273 18.0044 190.92 17.7994 189.537 17.947C187.566 18.1575 186.025 19.0733 184.923 20.7518C184.338 21.6429 184.026 22.6353 183.739 23.633C183.559 24.2618 183.551 24.9397 183.458 25.6505L183.461 25.656Z" fill="white"/>
<path d="M210.616 47.0934V38.7202C211.119 38.917 211.567 39.0974 212.021 39.2642C212.983 39.6168 213.94 39.9941 214.916 40.3057C215.914 40.6255 216.931 40.8798 217.937 41.1613C219.776 41.6753 221.657 41.8038 223.557 41.7436C224.462 41.7163 225.355 41.6261 226.2 41.2707C227.072 40.9044 227.772 40.3713 228.04 39.4036C228.332 38.3511 228.04 37.4381 227.345 36.6562C227.039 36.3118 226.659 35.9974 226.252 35.7842C224.702 34.9696 223.122 34.2069 221.559 33.4114C219.426 32.3261 217.242 31.3229 215.187 30.1036C213.363 29.0238 212.021 27.3864 211.204 25.4263C210.849 24.5734 210.63 23.6248 210.605 22.6544C210.57 21.2192 210.507 19.795 210.843 18.3707C211.152 17.064 211.772 15.9432 212.609 14.9263C213.992 13.2451 215.826 12.2391 217.866 11.5967C219.142 11.1948 220.446 10.9023 221.802 10.875C222.433 10.8613 223.062 10.6563 223.696 10.6208C225.476 10.5196 227.241 10.6426 228.991 11.0308C230.268 11.3124 231.574 11.46 232.837 11.7853C234.428 12.1954 235.97 12.7722 237.498 13.5977C236.525 16.0772 235.571 18.5347 234.54 20.8584C232.512 20.1312 230.612 19.3658 228.657 18.7753C226.626 18.1602 224.524 17.9825 222.422 18.4637C222.004 18.5593 221.58 18.7398 221.228 18.9831C220.271 19.6364 220.112 20.9568 220.777 21.9136C221.302 22.6681 222.04 23.1246 222.816 23.5401C224.839 24.6308 226.979 25.4673 229.067 26.4159C231.118 27.3481 233.108 28.376 234.83 29.8658C236.481 31.2928 237.347 33.1298 237.673 35.2265C237.845 36.3446 237.927 37.4955 237.867 38.6245C237.697 41.9186 236.371 44.655 233.641 46.5931C232.296 47.5472 230.735 48.0721 229.163 48.5313C227.58 48.9933 225.951 49.2147 224.317 49.2229C222.034 49.2339 219.743 49.2065 217.469 49.0316C216.179 48.9304 214.911 48.5094 213.637 48.2169C212.598 47.9791 211.581 47.6729 210.611 47.0879L210.616 47.0934Z" fill="white"/>
<path d="M140.593 37.9739C140.593 40.4943 140.566 43.0147 140.618 45.5352C140.631 46.2596 140.363 46.6314 139.765 46.9758C137.337 48.3782 134.735 49.1737 131.939 49.212C129.834 49.242 127.721 49.1956 125.624 49.037C124.632 48.9605 123.659 48.5723 122.691 48.2716C119.389 47.2519 117.071 45.0623 115.311 42.1509C114.121 40.1827 113.594 38.0203 113.167 35.8115C112.708 33.425 112.675 31.0167 112.736 28.5946C112.779 26.8451 112.935 25.0846 113.367 23.4225C114.734 18.1821 117.719 12.9635 125.127 11.2358C127.641 10.6508 130.2 10.3774 132.775 10.7164C134.757 10.9761 136.752 11.2276 138.649 11.911C139.674 12.2801 140.68 12.6956 141.738 13.1084C140.754 15.7655 139.808 18.3133 138.852 20.8911C138.187 21.0114 137.622 20.6397 137.042 20.4401C135.071 19.7594 133.139 18.953 131.015 18.8764C129.588 18.8245 128.185 18.9776 126.942 19.7184C126.299 20.1011 125.66 20.574 125.184 21.1454C124.233 22.2881 123.612 23.6084 123.314 25.0983C122.779 27.7663 122.686 30.4371 122.97 33.138C123.131 34.6634 123.53 36.104 124.252 37.449C125.228 39.2669 126.715 40.4916 128.759 40.836C129.837 41.0164 130.968 40.9508 132.07 40.9098C134.762 40.8087 137.154 39.7726 139.445 38.4523C139.776 38.2609 140.098 38.0641 140.426 37.8672C140.481 37.9028 140.536 37.9383 140.59 37.9739H140.593Z" fill="white"/>
<path d="M147.452 11.3151C149.825 11.3069 152.195 11.2987 154.568 11.296C154.62 11.296 154.674 11.337 154.718 11.3561C155.229 13.3708 155.74 15.3774 156.257 17.3839C156.273 17.4522 156.377 17.4987 156.525 17.6326C156.776 17.2991 157.031 17.0012 157.244 16.6704C158.816 14.2401 160.882 12.3922 163.605 11.3589C165.283 10.7219 167.022 10.3939 168.837 10.6973C169.457 10.8012 170.089 10.8395 170.794 10.916C170.548 14.1062 170.307 17.2363 170.056 20.4757C169.312 20.3772 168.632 20.1995 167.954 20.2132C166.699 20.2378 165.425 20.2597 164.201 20.4893C161.358 21.0251 159.22 22.5942 157.998 25.2568C157.665 25.984 157.435 26.785 157.326 27.5777C157.184 28.5865 157.173 29.6198 157.17 30.6449C157.151 36.3583 157.151 42.0716 157.145 47.7878C157.145 48.0146 157.145 48.2443 157.145 48.4684C157.006 48.5176 156.929 48.5696 156.85 48.5696C153.802 48.5696 150.757 48.5696 147.709 48.5696C147.622 48.5696 147.534 48.5477 147.45 48.5368C147.403 48.4794 147.354 48.4192 147.307 48.3618C147.299 47.8944 147.286 47.4242 147.286 46.9567C147.283 35.3468 147.28 23.7369 147.277 12.127C147.277 11.8947 147.305 11.6623 147.321 11.4272C147.365 11.3889 147.409 11.3534 147.452 11.3151Z" fill="white"/>
<path d="M23.752 26.8178C23.9433 26.651 24.0745 26.6401 24.0882 26.9462C23.9761 26.9025 23.864 26.8615 23.752 26.8178Z" fill="white"/>
<path d="M59.6387 26.8178C59.83 26.651 59.9612 26.6401 59.9749 26.9462C59.8628 26.9025 59.7507 26.8615 59.6387 26.8178Z" fill="white"/>
<path d="M206.375 32.5065C206.419 32.4546 206.465 32.4027 206.509 32.3507C206.462 32.4027 206.419 32.4546 206.375 32.5065Z" fill="white"/>
<path d="M106.285 48.5477C106.326 48.4848 106.367 48.422 106.411 48.3591C106.37 48.422 106.329 48.4848 106.285 48.5477Z" fill="white"/>
<path d="M96.582 25.1393C96.5328 25.1994 96.4836 25.2596 96.4316 25.3197C96.4808 25.2596 96.53 25.1994 96.582 25.1393Z" fill="white"/>
</svg>
