<svg width="284" height="44" viewBox="0 0 284 44" fill="none" xmlns="http://www.w3.org/2000/svg">
<path d="M91.2775 17.5993V24.199H113.277V43.9982H84.6777V37.3985H106.677V30.7987H84.6777V17.9407L91.655 10.9995H113.277V17.5993H91.2775Z" fill="white"/>
<path d="M66.7274 10.9995V17.5993H53.088V43.9982H46.4883V17.5958L53.0871 10.9995H66.7274Z" fill="white"/>
<path d="M23.0867 12.1725L21.9542 11.04L21.9137 10.9995H6.59973V0H0V43.9982H6.59973V17.5993H21.9991V43.9982H28.5988V17.6846L28.5575 17.6433L23.0867 12.1725Z" fill="white"/>
<path d="M283.415 17.6433L277.944 12.1725L276.812 11.04L276.771 10.9995H261.457V0H254.857V43.9982H261.457V17.5993H276.857V43.9982H283.456V17.6846L283.415 17.6433Z" fill="white"/>
<path d="M217.089 30.7547V17.5552H210.489V24.155H195.09V17.5552H210.489V10.9555H195.146L195.134 10.9678L192.986 13.1114L192.846 13.2513L190.783 15.3113L190.646 15.4468L188.49 17.5992V37.2884L188.512 37.3104L189.653 38.4544L190.646 39.4479V39.4514L190.792 39.5983L192.846 41.6592L192.985 41.7982L195.134 43.9542H217.089V37.3544H195.09V30.7547H217.089Z" fill="white"/>
<path d="M229.409 10.9766L227.268 13.1132L227.121 13.2601L225.064 15.3131L224.922 15.4556L222.771 17.601L222.766 17.6063V37.2919L223.928 38.4535L224.922 39.4479L225.072 39.5983L226.065 40.5909V40.5918L226.128 40.6534L227.121 41.6478L227.272 41.7982L228.265 42.7908V42.7917L229.409 43.9348L229.428 43.9542H249.165V37.3544H229.365V17.5552H249.165V10.9555H229.43L229.409 10.9766Z" fill="white"/>
<path d="M125.584 17.5993H138.77L136.628 15.4926L136.488 15.3554L135.833 14.7112L135.481 14.3645L135.418 14.3029L135.339 14.2255L133.263 12.1831L132.14 11.0796L132.058 10.9995H125.584V0H118.984V37.3113L119.025 37.3518L120.155 38.4878L122.287 40.6306L122.349 40.693L123.34 41.6892L123.491 41.8396L125.628 43.9876L125.638 43.9982H138.784V37.3985H125.584V17.5993Z" fill="white"/>
<path d="M169.588 17.6011H182.774L180.632 15.4936L180.492 15.3572L179.837 14.7122L179.485 14.3655L179.422 14.3047L179.343 14.2273L177.267 12.184L176.144 11.0814L176.062 11.0014H169.588V0.0018158H162.988V37.3123L163.029 37.3528L164.159 38.4897L166.291 40.6315L166.353 40.694L167.344 41.6901L167.495 41.8406L169.632 43.9894L169.642 44H182.787V37.4003H169.588V17.6011Z" fill="white"/>
<path d="M40.8477 10.9999V43.9979H34.248V10.9999H40.8477ZM40.8477 0.0018158V6.64732H34.248V0.0018158H40.8477Z" fill="white"/>
<path d="M79.0098 10.999V43.9971H72.4102V10.999H79.0098ZM79.0098 0V6.64551H72.4102V0H79.0098Z" fill="white"/>
<path d="M154.261 37.3544H147.615V43.9999H154.261V37.3544Z" fill="white"/>
</svg>
