<svg width="217" height="69" viewBox="0 0 217 69" fill="none" xmlns="http://www.w3.org/2000/svg">
<path d="M6.48 7.92003C6.48 8.82003 6.18 9.62003 5.54 10.22C4.9 10.86 4.14 11.16 3.24 11.16C2.34 11.16 1.54 10.86 0.939996 10.22C0.299996 9.58003 0 8.82003 0 7.92003C0 7.02003 0.299996 6.22003 0.939996 5.62003C1.58 4.98003 2.34 4.68003 3.24 4.68003C4.14 4.68003 4.94 4.98003 5.54 5.62003C6.18 6.22003 6.48 7.02003 6.48 7.92003ZM0.539996 18.46C0.539996 17.72 0.779999 17.12 1.28 16.62C1.78 16.12 2.41999 15.88 3.11999 15.88C3.81999 15.88 4.46 16.12 4.96 16.62C5.46 17.12 5.7 17.76 5.7 18.46V50.1C5.7 50.84 5.46 51.44 4.96 51.94C4.46 52.44 3.81999 52.68 3.11999 52.68C2.41999 52.68 1.78 52.44 1.28 51.94C0.779999 51.44 0.539996 50.8 0.539996 50.1V18.46Z" fill="white"/>
<path d="M22.3198 7.92005C22.3198 8.82005 22.0198 9.62005 21.3798 10.2201C20.7398 10.8601 19.9798 11.1601 19.0798 11.1601C18.1798 11.1601 17.3798 10.8601 16.7798 10.2201C16.1398 9.58005 15.8398 8.82005 15.8398 7.92005C15.8398 7.02005 16.1398 6.22005 16.7798 5.62005C17.4198 4.98005 18.1798 4.68005 19.0798 4.68005C19.9798 4.68005 20.7798 4.98005 21.3798 5.62005C21.9798 6.22005 22.3198 7.02005 22.3198 7.92005ZM16.3798 18.4601C16.3798 17.7201 16.6198 17.1201 17.1198 16.6201C17.6198 16.1201 18.2598 15.8801 18.9598 15.8801C19.6598 15.8801 20.2998 16.1201 20.7998 16.6201C21.2998 17.1201 21.5398 17.7601 21.5398 18.4601V50.1001C21.5398 50.8401 21.2998 51.4401 20.7998 51.9401C20.2998 52.4401 19.6598 52.6801 18.9598 52.6801C18.2598 52.6801 17.6198 52.4401 17.1198 51.9401C16.6198 51.4401 16.3798 50.8001 16.3798 50.1001V18.4601Z" fill="white"/>
<path d="M34.8202 50.1C34.8202 50.84 34.5802 51.44 34.0802 51.94C33.5802 52.44 32.9402 52.68 32.2402 52.68C31.5402 52.68 30.9002 52.44 30.4002 51.94C29.9002 51.44 29.6602 50.8 29.6602 50.1V18.46C29.6602 17.72 29.9002 17.12 30.4002 16.62C30.9002 16.12 31.5402 15.88 32.2402 15.88C32.9402 15.88 33.5802 16.12 34.0802 16.62C34.5802 17.12 34.8202 17.76 34.8202 18.46V19.16C37.4202 16.96 40.5202 15.82 44.0602 15.82C47.6002 15.82 51.4602 17.22 54.3002 20.06C54.9002 20.66 55.4402 21.26 55.9002 21.96C56.4002 21.32 56.9002 20.66 57.5002 20.06C60.3402 17.22 63.7402 15.82 67.7402 15.82C71.7402 15.82 75.1402 17.22 77.9802 20.06C80.8202 22.9 82.2202 26.3 82.2202 30.3V50.08C82.2202 50.82 81.9802 51.42 81.4802 51.92C80.9802 52.42 80.3402 52.66 79.6402 52.66C78.9402 52.66 78.3002 52.42 77.8002 51.92C77.3002 51.42 77.0602 50.78 77.0602 50.08V30.3C77.0602 27.76 76.1602 25.6 74.3602 23.76C72.5602 21.96 70.3602 21.06 67.8202 21.06C65.2802 21.06 63.1202 21.96 61.2802 23.76C59.4802 25.56 58.5802 27.76 58.5802 30.3V50.08C58.5802 50.82 58.3402 51.42 57.8402 51.92C57.3402 52.42 56.7002 52.66 56.0002 52.66C55.3002 52.66 54.6602 52.42 54.1602 51.92C53.6602 51.42 53.4202 50.78 53.4202 50.08V30.3C53.4202 27.76 52.5202 25.6 50.7202 23.76C48.9202 21.96 46.7202 21.06 44.1802 21.06C41.6402 21.06 39.4802 21.96 37.6402 23.76C35.8402 25.56 34.9402 27.76 34.9402 30.3V50.08H34.9002L34.8202 50.1Z" fill="white"/>
<path d="M91.0393 52.7V18.46C91.0393 17.72 91.2793 17.12 91.7793 16.62C92.2793 16.12 92.9193 15.88 93.6193 15.88C94.3193 15.88 94.9593 16.12 95.4593 16.62C95.9593 17.12 96.1993 17.76 96.1993 18.46V52.74C96.1993 57.08 94.6593 60.84 91.5593 63.94C88.4593 67.04 84.7593 68.58 80.3593 68.58C75.9593 68.58 79.0193 68.34 78.5193 67.84C78.0193 67.34 77.7793 66.7 77.7793 66C77.7793 65.3 78.0193 64.66 78.5193 64.16C79.0193 63.66 79.6593 63.42 80.3593 63.42C83.2593 63.42 85.7593 62.38 87.7993 60.32C89.9393 58.18 90.9993 55.68 90.9993 52.72L91.0393 52.7ZM96.9393 7.91999C96.9393 8.81999 96.6393 9.61999 95.9993 10.22C95.3593 10.86 94.5993 11.16 93.6993 11.16C92.7993 11.16 91.9993 10.86 91.3993 10.22C90.7593 9.57999 90.4593 8.81999 90.4593 7.91999C90.4593 7.01999 90.7593 6.21999 91.3993 5.61999C92.0393 4.97999 92.7993 4.67999 93.6993 4.67999C94.5993 4.67999 95.3993 4.97999 95.9993 5.61999C96.6393 6.21999 96.9393 7.01999 96.9393 7.91999Z" fill="white"/>
<path d="M138.96 34.26C138.96 39.36 137.16 43.7 133.56 47.3C129.96 50.9 125.62 52.7 120.52 52.7C115.42 52.7 111.08 50.9 107.48 47.3C103.88 43.7 102.08 39.36 102.08 34.26C102.08 29.16 103.88 24.82 107.48 21.22C111.08 17.62 115.42 15.82 120.52 15.82C125.62 15.82 129.96 17.62 133.56 21.22C137.16 24.82 138.96 29.16 138.96 34.26ZM120.52 21.06C116.88 21.06 113.78 22.36 111.18 24.9C108.64 27.44 107.34 30.6 107.34 34.24C107.34 37.88 108.64 40.98 111.18 43.58C113.72 46.12 116.88 47.42 120.52 47.42C124.16 47.42 127.26 46.12 129.86 43.58C132.4 41.04 133.7 37.88 133.7 34.24C133.7 30.6 132.4 27.5 129.86 24.9C127.26 22.36 124.16 21.06 120.52 21.06Z" fill="white"/>
<path d="M149.498 21.36C149.538 21.32 149.598 21.26 149.638 21.22C153.238 17.62 157.578 15.82 162.678 15.82C167.778 15.82 172.118 17.62 175.718 21.22C179.318 24.82 181.118 29.16 181.118 34.26C181.118 39.36 179.318 43.7 175.718 47.3C172.118 50.9 167.778 52.7 162.678 52.7C157.578 52.7 153.238 50.9 149.638 47.3C146.038 43.7 144.238 39.36 144.238 34.26V2.58C144.238 1.84 144.478 1.24 144.978 0.739999C145.478 0.239999 146.118 0 146.818 0C147.518 0 148.158 0.239999 148.658 0.739999C149.158 1.24 149.398 1.88 149.398 2.58V21.36H149.438H149.498ZM162.698 47.44C166.338 47.44 169.438 46.14 172.038 43.6C174.578 41.06 175.878 37.9 175.878 34.26C175.878 30.62 174.578 27.52 172.038 24.92C169.498 22.38 166.338 21.08 162.698 21.08C159.058 21.08 155.958 22.38 153.358 24.92C150.818 27.46 149.518 30.62 149.518 34.26C149.518 37.9 150.818 41 153.358 43.6C155.958 46.14 159.058 47.44 162.698 47.44Z" fill="white"/>
<path d="M192.919 34.26C190.919 33.52 189.519 32.72 188.719 31.92C187.179 30.38 186.379 28.52 186.379 26.38C186.379 24.24 187.179 22.28 188.819 20.68C191.959 17.44 196.119 15.84 201.219 15.84C206.319 15.84 211.459 18.04 215.359 22.48C215.699 22.88 215.859 23.42 215.859 24.02C215.859 24.62 215.619 25.36 215.119 25.86C214.619 26.36 213.979 26.6 213.279 26.6C212.579 26.6 211.979 26.36 211.539 25.9C211.099 25.46 210.799 25.1 210.599 24.9C208.059 22.36 204.899 21.06 201.259 21.06C197.619 21.06 194.719 22.2 192.519 24.5C191.979 25.14 191.719 25.9 191.719 26.74C191.759 27.78 192.319 28.48 193.319 28.84L209.519 34.18C211.519 34.92 212.919 35.72 213.719 36.52C215.259 38.06 216.059 39.92 216.059 42.06C216.059 44.2 215.259 46.16 213.619 47.76C210.479 51 206.319 52.6 201.219 52.6C196.119 52.6 190.979 50.4 187.079 45.96C186.739 45.52 186.579 44.96 186.579 44.42C186.579 43.88 186.819 43.08 187.319 42.58C187.819 42.08 188.459 41.84 189.159 41.84C189.859 41.84 190.459 42.08 190.899 42.54C191.339 42.98 191.639 43.34 191.839 43.54C194.379 46.08 197.539 47.38 201.179 47.38C204.819 47.38 207.719 46.24 209.919 43.94C210.459 43.3 210.719 42.54 210.719 41.7C210.679 40.66 210.119 39.96 209.119 39.6L192.919 34.26Z" fill="white"/>
<path d="M175.699 65.94C175.699 66.24 175.599 66.5 175.379 66.7C175.159 66.92 174.919 67.02 174.619 67.02C174.319 67.02 174.059 66.92 173.859 66.7C173.639 66.48 173.539 66.24 173.539 65.94C173.539 65.64 173.639 65.38 173.859 65.18C174.079 64.96 174.319 64.86 174.619 64.86C174.919 64.86 175.179 64.96 175.379 65.18C175.599 65.4 175.699 65.66 175.699 65.94Z" fill="white"/>
<path d="M184.898 64.56C185.078 64.56 185.278 64.64 185.398 64.78C185.538 64.92 185.618 65.1 185.618 65.28C185.618 65.46 185.538 65.66 185.398 65.8C184.478 66.6 183.378 67 182.138 67C180.898 67 179.578 66.52 178.618 65.54C177.638 64.56 177.158 63.4 177.158 62.02C177.158 60.64 177.638 59.46 178.618 58.5C179.598 57.52 180.758 57.04 182.138 57.04C183.518 57.04 184.478 57.44 185.398 58.24C185.558 58.4 185.638 58.58 185.638 58.8C185.638 59.02 185.558 59.18 185.418 59.3C185.278 59.44 185.098 59.52 184.918 59.52C184.738 59.52 184.598 59.46 184.458 59.36C183.798 58.78 182.998 58.48 182.118 58.48C181.238 58.48 180.298 58.82 179.598 59.52C178.918 60.2 178.558 61.06 178.558 62.04C178.558 63.02 178.898 63.86 179.598 64.56C180.278 65.24 181.138 65.6 182.118 65.6C183.098 65.6 183.778 65.3 184.458 64.72C184.558 64.64 184.718 64.58 184.878 64.58L184.898 64.56Z" fill="white"/>
<path d="M197.14 62C197.14 63.38 196.66 64.56 195.68 65.52C194.7 66.5 193.54 66.98 192.16 66.98C190.78 66.98 189.6 66.5 188.64 65.52C187.66 64.54 187.18 63.38 187.18 62C187.18 60.62 187.66 59.44 188.64 58.48C189.62 57.5 190.78 57.02 192.16 57.02C193.54 57.02 194.72 57.5 195.68 58.48C196.64 59.44 197.14 60.62 197.14 62ZM192.12 58.44C191.14 58.44 190.3 58.78 189.6 59.48C188.92 60.16 188.56 61.02 188.56 62C188.56 62.98 188.9 63.82 189.6 64.52C190.3 65.22 191.14 65.56 192.12 65.56C193.1 65.56 193.94 65.22 194.64 64.52C195.32 63.84 195.68 62.98 195.68 62C195.68 61.02 195.34 60.18 194.64 59.48C193.96 58.8 193.1 58.44 192.12 58.44Z" fill="white"/>
<path d="M199.96 66.28C199.96 66.46 199.88 66.66 199.74 66.78C199.6 66.92 199.42 67 199.24 67C199.06 67 198.86 66.92 198.74 66.78C198.6 66.64 198.52 66.46 198.52 66.28V57.72C198.52 57.54 198.6 57.34 198.74 57.22C198.88 57.08 199.06 57 199.24 57C199.42 57 199.62 57.08 199.74 57.22C199.88 57.36 199.96 57.54 199.96 57.72V57.9C200.68 57.3 201.5 57 202.46 57C203.42 57 204.48 57.38 205.24 58.14C205.4 58.3 205.56 58.46 205.7 58.64C205.84 58.46 205.96 58.3 206.16 58.14C206.92 57.38 207.86 57 208.94 57C210.02 57 210.96 57.38 211.72 58.14C212.48 58.9 212.86 59.84 212.86 60.92V66.28C212.86 66.46 212.78 66.66 212.64 66.78C212.5 66.92 212.32 67 212.14 67C211.96 67 211.76 66.92 211.64 66.78C211.5 66.64 211.42 66.46 211.42 66.28V60.92C211.42 60.24 211.18 59.64 210.68 59.14C210.2 58.66 209.6 58.4 208.9 58.4C208.2 58.4 207.62 58.64 207.12 59.14C206.64 59.62 206.38 60.22 206.38 60.92V66.28C206.38 66.46 206.3 66.66 206.16 66.78C206.02 66.9 205.84 67 205.66 67C205.48 67 205.28 66.92 205.16 66.78C205.04 66.64 204.94 66.46 204.94 66.28V60.92C204.94 60.24 204.7 59.64 204.2 59.14C203.72 58.66 203.12 58.4 202.42 58.4C201.72 58.4 201.14 58.64 200.64 59.14C200.16 59.62 199.9 60.22 199.9 60.92V66.28H199.96Z" fill="white"/>
</svg>
