<svg width="205" height="40" viewBox="0 0 205 40" fill="none" xmlns="http://www.w3.org/2000/svg">
<path d="M201.551 14.59C201.657 14.5368 201.764 14.5103 201.87 14.5103C202.056 14.5103 202.149 14.6299 202.149 14.8691V32.3315C202.149 33.2883 202.269 34.0193 202.508 34.5243C202.774 35.0027 203.053 35.3748 203.345 35.6406C203.637 35.8798 203.903 36.0526 204.142 36.1589C204.408 36.2652 204.541 36.3848 204.541 36.5177C204.541 36.6506 204.475 36.717 204.342 36.717H194.973C194.84 36.717 194.773 36.6506 194.773 36.5177C194.773 36.3848 194.893 36.2652 195.132 36.1589C195.398 36.0526 195.677 35.8798 195.969 35.6406C196.262 35.3748 196.528 35.0027 196.767 34.5243C197.033 34.0193 197.166 33.2883 197.166 32.3315V22.8826C197.166 21.9258 197.099 21.1816 196.966 20.65C196.833 20.0918 196.661 19.6799 196.448 19.4141C196.235 19.1217 195.996 18.9357 195.73 18.8559C195.491 18.7762 195.265 18.7363 195.053 18.7363C194.866 18.7363 194.773 18.6566 194.773 18.4971C194.773 18.3908 194.853 18.2978 195.013 18.218L201.551 14.59Z" fill="#E63157"/>
<path d="M179.426 7.41348C179.532 7.36032 179.639 7.33374 179.745 7.33374C179.931 7.33374 180.024 7.45335 180.024 7.69256V21.0086C180.237 20.105 180.516 19.2677 180.861 18.4969C181.233 17.6996 181.672 17.0085 182.177 16.4238C182.682 15.839 183.267 15.3739 183.931 15.0284C184.622 14.6828 185.406 14.5101 186.283 14.5101C187.081 14.5101 187.851 14.6695 188.596 14.9885C189.366 15.2809 190.044 15.746 190.629 16.3839C191.24 17.0218 191.718 17.8325 192.064 18.8159C192.436 19.7993 192.622 20.9688 192.622 22.3243V32.3313C192.622 33.2882 192.742 34.0191 192.981 34.5241C193.247 35.0025 193.526 35.3746 193.818 35.6404C194.111 35.8796 194.376 36.0524 194.616 36.1587C194.881 36.265 195.014 36.3846 195.014 36.5175C195.014 36.6504 194.948 36.7168 194.815 36.7168H185.446C185.313 36.7168 185.247 36.6504 185.247 36.5175C185.247 36.3846 185.366 36.265 185.605 36.1587C185.871 36.0524 186.15 35.8796 186.443 35.6404C186.735 35.3746 187.001 35.0025 187.24 34.5241C187.506 34.0191 187.639 33.2882 187.639 32.3313V21.2479C187.639 20.5568 187.599 19.9056 187.519 19.2943C187.466 18.683 187.346 18.1381 187.16 17.6597C187.001 17.1813 186.748 16.8092 186.403 16.5434C186.084 16.251 185.659 16.1048 185.127 16.1048C184.33 16.1048 183.612 16.4238 182.974 17.0617C182.363 17.673 181.831 18.4836 181.379 19.4936C180.954 20.5036 180.622 21.6598 180.383 22.9622C180.144 24.238 180.024 25.5537 180.024 26.9092V32.3313C180.024 33.2882 180.144 34.0191 180.383 34.5241C180.649 35.0025 180.928 35.3746 181.22 35.6404C181.512 35.8796 181.778 36.0524 182.017 36.1587C182.283 36.265 182.416 36.3846 182.416 36.5175C182.416 36.6504 182.35 36.7168 182.217 36.7168H172.848C172.715 36.7168 172.648 36.6504 172.648 36.5175C172.648 36.3846 172.768 36.265 173.007 36.1587C173.273 36.0524 173.552 35.8796 173.844 35.6404C174.137 35.3746 174.403 35.0025 174.642 34.5241C174.908 34.0191 175.041 33.2882 175.041 32.3313V15.7061C175.041 14.7493 174.974 14.0051 174.841 13.4735C174.708 12.9153 174.536 12.5034 174.323 12.2376C174.11 11.9452 173.871 11.7591 173.605 11.6794C173.366 11.5997 173.14 11.5598 172.928 11.5598C172.741 11.5598 172.648 11.4801 172.648 11.3206C172.648 11.2143 172.728 11.1213 172.888 11.0415L179.426 7.41348Z" fill="#E63157"/>
<path d="M168.827 14.7897H171.338C171.79 14.7897 172.016 15.0157 172.016 15.4675C172.016 15.9459 171.79 16.1851 171.338 16.1851H168.827V27.9464C168.827 29.4614 168.92 30.684 169.106 31.6143C169.318 32.5445 169.584 33.2887 169.903 33.8469C170.222 34.3785 170.554 34.7639 170.9 35.0031C171.245 35.2423 171.577 35.4151 171.896 35.5214C172.215 35.6011 172.468 35.6808 172.654 35.7606C172.866 35.8137 172.973 35.9334 172.973 36.1194C172.973 36.2789 172.866 36.4251 172.654 36.558C172.468 36.6643 171.95 36.7174 171.099 36.7174C169.478 36.7174 168.189 36.4384 167.232 35.8802C166.275 35.322 165.544 34.6177 165.039 33.7672C164.534 32.8901 164.202 31.9332 164.042 30.8966C163.91 29.8335 163.843 28.7969 163.843 27.7869V16.1851H162.448C162.182 16.1851 161.983 16.1054 161.85 15.9459C161.717 15.7599 161.65 15.5605 161.65 15.3479C161.65 15.1353 161.717 14.9359 161.85 14.7499C161.983 14.5638 162.155 14.4043 162.368 14.2715L167.989 10.3245C168.175 10.1916 168.335 10.1251 168.468 10.1251C168.707 10.1251 168.827 10.2846 168.827 10.6035V14.7897Z" fill="#E63157"/>
<path d="M154.926 33.2883C154.421 34.4046 153.651 35.3083 152.614 35.9994C151.604 36.6639 150.262 36.9961 148.587 36.9961C147.79 36.9961 146.966 36.9031 146.116 36.717C145.265 36.5044 144.494 36.1722 143.803 35.7203C143.112 35.2685 142.541 34.6704 142.089 33.9262C141.664 33.182 141.451 32.2783 141.451 31.2152C141.451 29.9394 141.757 28.9028 142.368 28.1054C143.006 27.2815 143.79 26.617 144.72 26.112C145.677 25.5804 146.714 25.1552 147.83 24.8362C148.973 24.5173 150.036 24.2249 151.019 23.9591C152.029 23.6933 152.893 23.4009 153.611 23.082C154.328 22.763 154.754 22.3378 154.887 21.8062C154.807 19.9191 154.501 18.4838 153.97 17.5004C153.438 16.4904 152.428 15.9854 150.94 15.9854C150.116 15.9854 149.465 16.1316 148.986 16.4239C148.534 16.7163 148.176 17.0884 147.91 17.5403C147.671 17.9921 147.484 18.4705 147.352 18.9755C147.219 19.4805 147.059 19.959 146.873 20.4108C146.687 20.8626 146.421 21.2347 146.076 21.5271C145.757 21.8195 145.292 21.9657 144.68 21.9657C143.91 21.9657 143.312 21.7132 142.886 21.2082C142.488 20.7032 142.288 20.0653 142.288 19.2945C142.288 18.4174 142.541 17.6732 143.046 17.0618C143.551 16.4505 144.202 15.9588 144.999 15.5867C145.823 15.2146 146.74 14.9488 147.75 14.7893C148.787 14.6033 149.823 14.5103 150.86 14.5103C152.481 14.5103 153.863 14.7229 155.006 15.1482C156.149 15.5734 157.079 16.1847 157.797 16.9821C158.541 17.7795 159.073 18.7629 159.392 19.9324C159.737 21.0753 159.91 22.3909 159.91 23.8794V32.3315C159.91 33.2883 160.03 34.0193 160.269 34.5243C160.534 35.0027 160.814 35.3748 161.106 35.6406C161.398 35.8798 161.664 36.0525 161.903 36.1589C162.169 36.2652 162.302 36.3848 162.302 36.5177C162.302 36.6506 162.236 36.717 162.103 36.717H155.524C155.126 36.717 154.926 36.5177 154.926 36.119V33.2883ZM154.926 23.0022C154.608 23.4009 154.169 23.7598 153.611 24.0787C153.079 24.3711 152.508 24.6634 151.897 24.9558C151.285 25.2216 150.647 25.514 149.983 25.8329C149.345 26.1519 148.774 26.5505 148.269 27.029C147.764 27.4808 147.338 28.039 146.993 28.7035C146.674 29.3413 146.514 30.1387 146.514 31.0956C146.514 32.4511 146.833 33.5275 147.471 34.3249C148.136 35.1223 149.092 35.521 150.342 35.521C151.803 35.521 152.933 34.9894 153.73 33.9262C154.528 32.8365 154.926 31.3481 154.926 29.461V23.0022Z" fill="#E63157"/>
<path d="M130.918 36.9961C129.882 36.9961 128.792 36.8765 127.649 36.6373C126.506 36.3981 125.456 36.026 124.5 35.521C123.569 34.9894 122.785 34.3249 122.147 33.5275C121.536 32.7036 121.23 31.7202 121.23 30.5773C121.23 29.7002 121.417 29.0091 121.789 28.5041C122.187 27.9991 122.772 27.7466 123.543 27.7466C124.234 27.7466 124.739 27.9459 125.058 28.3446C125.377 28.7167 125.629 29.1952 125.815 29.7799C126.001 30.3381 126.161 30.9627 126.294 31.6537C126.453 32.3182 126.706 32.9428 127.051 33.5275C127.397 34.0857 127.875 34.5641 128.486 34.9628C129.124 35.3349 130.015 35.521 131.158 35.521C131.928 35.521 132.579 35.4279 133.111 35.2419C133.669 35.0558 134.121 34.8299 134.467 34.5641C134.812 34.2718 135.065 33.9528 135.224 33.6073C135.41 33.2618 135.503 32.9162 135.503 32.5707C135.503 31.8531 135.171 31.2019 134.506 30.6171C133.842 30.0324 133.018 29.4742 132.035 28.9427C131.051 28.4111 129.975 27.8662 128.805 27.308C127.662 26.7499 126.599 26.1253 125.616 25.4342C124.633 24.7432 123.809 23.9724 123.144 23.1219C122.48 22.2447 122.147 21.2215 122.147 20.052C122.147 19.1217 122.373 18.3111 122.825 17.62C123.277 16.9024 123.888 16.3176 124.659 15.8658C125.43 15.4139 126.32 15.0817 127.33 14.8691C128.34 14.6299 129.39 14.5103 130.48 14.5103C131.463 14.5103 132.46 14.6166 133.47 14.8292C134.506 15.0153 135.437 15.3342 136.261 15.786C137.111 16.2113 137.802 16.7828 138.334 17.5004C138.865 18.1914 139.131 19.042 139.131 20.052C139.131 20.9025 138.932 21.6069 138.533 22.165C138.134 22.6966 137.55 22.9624 136.779 22.9624C136.168 22.9624 135.702 22.7896 135.383 22.4441C135.065 22.0986 134.812 21.6733 134.626 21.1683C134.467 20.6367 134.307 20.0786 134.148 19.4938C134.015 18.8825 133.815 18.3243 133.55 17.8193C133.284 17.2878 132.912 16.8492 132.433 16.5037C131.955 16.1582 131.29 15.9854 130.44 15.9854C129.829 15.9854 129.31 16.0784 128.885 16.2645C128.486 16.4239 128.154 16.6366 127.888 16.9024C127.649 17.1682 127.476 17.4605 127.37 17.7795C127.264 18.0718 127.211 18.3509 127.211 18.6167C127.211 19.3875 127.543 20.0786 128.207 20.6899C128.872 21.3012 129.696 21.8859 130.679 22.4441C131.663 23.0022 132.726 23.5737 133.869 24.1584C135.038 24.7166 136.114 25.3279 137.098 25.9924C138.081 26.6569 138.905 27.4144 139.57 28.2649C140.234 29.1154 140.566 30.0988 140.566 31.2152C140.566 32.1986 140.287 33.0624 139.729 33.8066C139.198 34.5243 138.48 35.1223 137.576 35.6007C136.673 36.0791 135.636 36.4379 134.467 36.6772C133.324 36.8898 132.141 36.9961 130.918 36.9961Z" fill="#E63157"/>
<path d="M105.565 14.59C105.671 14.5368 105.777 14.5103 105.884 14.5103C106.07 14.5103 106.163 14.6299 106.163 14.8691V21.0088C106.375 20.1051 106.654 19.2679 107 18.4971C107.372 17.6997 107.81 17.0087 108.315 16.4239C108.82 15.8392 109.405 15.3741 110.07 15.0285C110.761 14.683 111.545 14.5103 112.422 14.5103C113.219 14.5103 113.99 14.6697 114.734 14.9887C115.505 15.281 116.183 15.7462 116.767 16.3841C117.379 17.022 117.857 17.8326 118.203 18.8161C118.575 19.7995 118.761 20.969 118.761 22.3245V32.3315C118.761 33.2883 118.88 34.0193 119.12 34.5243C119.385 35.0027 119.664 35.3748 119.957 35.6406C120.249 35.8798 120.515 36.0526 120.754 36.1589C121.02 36.2652 121.153 36.3848 121.153 36.5177C121.153 36.6506 121.086 36.717 120.954 36.717H111.585C111.452 36.717 111.385 36.6506 111.385 36.5177C111.385 36.3848 111.505 36.2652 111.744 36.1589C112.01 36.0526 112.289 35.8798 112.581 35.6406C112.874 35.3748 113.139 35.0027 113.379 34.5243C113.644 34.0193 113.777 33.2883 113.777 32.3315V21.248C113.777 20.557 113.737 19.9058 113.658 19.2945C113.605 18.6832 113.485 18.1383 113.299 17.6599C113.139 17.1814 112.887 16.8093 112.541 16.5435C112.223 16.2512 111.797 16.105 111.266 16.105C110.468 16.105 109.751 16.4239 109.113 17.0618C108.502 17.6732 107.97 18.4838 107.518 19.4938C107.093 20.5038 106.761 21.66 106.521 22.9624C106.282 24.2382 106.163 25.5538 106.163 26.9094V32.3315C106.163 33.2883 106.282 34.0193 106.521 34.5243C106.787 35.0027 107.066 35.3748 107.359 35.6406C107.651 35.8798 107.917 36.0526 108.156 36.1589C108.422 36.2652 108.555 36.3848 108.555 36.5177C108.555 36.6506 108.488 36.717 108.355 36.717H98.9864C98.8536 36.717 98.7871 36.6506 98.7871 36.5177C98.7871 36.3848 98.9067 36.2652 99.1459 36.1589C99.4117 36.0526 99.6908 35.8798 99.9831 35.6406C100.276 35.3748 100.541 35.0027 100.78 34.5243C101.046 34.0193 101.179 33.2883 101.179 32.3315V22.8826C101.179 21.9258 101.113 21.1816 100.98 20.65C100.847 20.0918 100.674 19.6799 100.462 19.4141C100.249 19.1217 100.01 18.9357 99.7439 18.8559C99.5047 18.7762 99.2788 18.7363 99.0662 18.7363C98.8801 18.7363 98.7871 18.6566 98.7871 18.4971C98.7871 18.3908 98.8668 18.2978 99.0263 18.218L105.565 14.59Z" fill="#E63157"/>
<path d="M91.78 33.2883C91.275 34.4046 90.5042 35.3083 89.4676 35.9994C88.4577 36.6639 87.1154 36.9961 85.441 36.9961C84.6436 36.9961 83.8197 36.9031 82.9692 36.717C82.1187 36.5044 81.3479 36.1722 80.6569 35.7203C79.9658 35.2685 79.3944 34.6704 78.9426 33.9262C78.5173 33.182 78.3047 32.2783 78.3047 31.2152C78.3047 29.9394 78.6103 28.9028 79.2216 28.1054C79.8595 27.2815 80.6436 26.617 81.5738 26.112C82.5307 25.5804 83.5672 25.1552 84.6835 24.8362C85.8264 24.5173 86.8895 24.2249 87.8729 23.9591C88.8829 23.6933 89.7467 23.4009 90.4643 23.082C91.1819 22.763 91.6072 22.3378 91.7401 21.8062C91.6604 19.9191 91.3547 18.4838 90.8231 17.5004C90.2916 16.4904 89.2816 15.9854 87.7932 15.9854C86.9693 15.9854 86.3181 16.1316 85.8397 16.4239C85.3878 16.7163 85.029 17.0884 84.7632 17.5403C84.524 17.9921 84.338 18.4705 84.2051 18.9755C84.0722 19.4805 83.9127 19.959 83.7267 20.4108C83.5406 20.8626 83.2749 21.2347 82.9293 21.5271C82.6104 21.8195 82.1453 21.9657 81.534 21.9657C80.7632 21.9657 80.1652 21.7132 79.7399 21.2082C79.3412 20.7032 79.1419 20.0653 79.1419 19.2945C79.1419 18.4174 79.3944 17.6732 79.8994 17.0618C80.4044 16.4505 81.0556 15.9588 81.8529 15.5867C82.6768 15.2146 83.5938 14.9488 84.6038 14.7893C85.6403 14.6033 86.6769 14.5103 87.7135 14.5103C89.3347 14.5103 90.7168 14.7229 91.8597 15.1482C93.0026 15.5734 93.9328 16.1847 94.6504 16.9821C95.3946 17.7795 95.9262 18.7629 96.2451 19.9324C96.5907 21.0753 96.7634 22.3909 96.7634 23.8794V32.3315C96.7634 33.2883 96.883 34.0193 97.1222 34.5243C97.388 35.0027 97.6671 35.3748 97.9595 35.6406C98.2518 35.8798 98.5176 36.0525 98.7568 36.1589C99.0226 36.2652 99.1555 36.3848 99.1555 36.5177C99.1555 36.6506 99.089 36.717 98.9561 36.717H92.378C91.9793 36.717 91.78 36.5177 91.78 36.119V33.2883ZM91.78 23.0022C91.461 23.4009 91.0225 23.7598 90.4643 24.0787C89.9328 24.3711 89.3613 24.6634 88.75 24.9558C88.1387 25.2216 87.5008 25.514 86.8364 25.8329C86.1985 26.1519 85.627 26.5505 85.1221 27.029C84.6171 27.4808 84.1918 28.039 83.8463 28.7035C83.5274 29.3413 83.3679 30.1387 83.3679 31.0956C83.3679 32.4511 83.6868 33.5275 84.3247 34.3249C84.9892 35.1223 85.946 35.521 87.1952 35.521C88.657 35.521 89.7866 34.9894 90.5839 33.9262C91.3813 32.8365 91.78 31.3481 91.78 29.461V23.0022Z" fill="#E63157"/>
<path d="M62.0825 19.1752C61.7635 18.2981 61.4047 17.607 61.006 17.102C60.6339 16.597 60.2751 16.2116 59.9296 15.9459C59.6107 15.6801 59.3316 15.494 59.0924 15.3877C58.8798 15.2548 58.7734 15.1219 58.7734 14.989C58.7734 14.8561 58.8399 14.7897 58.9728 14.7897H68.6606C68.7935 14.7897 68.86 14.8561 68.86 14.989C68.86 15.1219 68.7138 15.2548 68.4214 15.3877C68.1556 15.494 67.8898 15.6801 67.6241 15.9459C67.3583 16.1851 67.1589 16.5572 67.026 17.0622C66.9197 17.5672 67.0393 18.2715 67.3849 19.1752L71.0527 29.0227L74.7604 19.1353C75.1059 18.2317 75.2255 17.5406 75.1192 17.0622C75.0395 16.5572 74.88 16.1718 74.6408 15.906C74.4016 15.6402 74.1491 15.4541 73.8833 15.3478C73.6175 15.2415 73.4846 15.1219 73.4846 14.989C73.4846 14.8561 73.5511 14.7897 73.6839 14.7897H79.5445C79.6774 14.7897 79.7438 14.8561 79.7438 14.989C79.7438 15.1219 79.6242 15.2548 79.385 15.3877C79.1458 15.494 78.8402 15.6801 78.4681 15.9459C78.1226 16.1851 77.7505 16.5572 77.3518 17.0622C76.9531 17.5406 76.581 18.2317 76.2355 19.1353L69.6174 36.6775C69.5377 36.8901 69.3782 36.9964 69.139 36.9964C68.8998 36.9964 68.7404 36.8901 68.6606 36.6775L62.0825 19.1752Z" fill="#E63157"/>
<path d="M60.551 29.74C60.551 30.059 60.4048 30.6171 60.1125 31.4145C59.8467 32.1853 59.3683 32.996 58.6772 33.8465C57.9862 34.6704 57.0559 35.4014 55.8865 36.0393C54.717 36.6772 53.2419 36.9961 51.4612 36.9961C49.9728 36.9961 48.604 36.7303 47.3548 36.1987C46.1056 35.6406 45.0292 34.8698 44.1255 33.8864C43.2484 32.9029 42.5574 31.7202 42.0524 30.3381C41.5474 28.956 41.2949 27.4277 41.2949 25.7532C41.2949 24.0787 41.5208 22.5504 41.9727 21.1683C42.4245 19.7862 43.0624 18.6034 43.8863 17.62C44.7368 16.6366 45.7601 15.8791 46.9561 15.3475C48.1522 14.7893 49.4811 14.5103 50.9429 14.5103C52.3781 14.5103 53.6539 14.7628 54.7702 15.2678C55.9131 15.7462 56.8832 16.4239 57.6805 17.3011C58.4779 18.1516 59.0892 19.1616 59.5145 20.3311C59.9397 21.5005 60.1523 22.7498 60.1523 24.0787C60.1523 24.5837 60.0859 24.9957 59.953 25.3146C59.8467 25.607 59.5543 25.7532 59.0759 25.7532H46.3581C46.3581 27.215 46.5176 28.4775 46.8365 29.5407C47.182 30.6038 47.6339 31.481 48.192 32.172C48.7768 32.8365 49.4678 33.3282 50.2652 33.6471C51.0625 33.9661 51.9263 34.1256 52.8566 34.1256C54.1323 34.1256 55.1955 33.8731 56.046 33.3681C56.9231 32.8631 57.6407 32.3182 58.1988 31.7335C58.7835 31.1221 59.2354 30.5773 59.5543 30.0988C59.8733 29.5938 60.1258 29.3413 60.3118 29.3413C60.4713 29.3413 60.551 29.4742 60.551 29.74ZM55.0493 24.3578C55.0758 23.082 54.9961 21.9391 54.8101 20.9291C54.624 19.8925 54.3449 19.0154 53.9728 18.2978C53.6273 17.5536 53.1888 16.9821 52.6572 16.5834C52.1522 16.1847 51.5808 15.9854 50.9429 15.9854C49.6406 15.9854 48.5907 16.7429 47.7934 18.2579C46.996 19.7729 46.5309 21.8062 46.398 24.3578H55.0493Z" fill="#E63157"/>
<path d="M40.4905 29.74C40.4905 30.059 40.3443 30.6171 40.0519 31.4145C39.7861 32.1853 39.3077 32.996 38.6167 33.8465C37.9256 34.6704 36.9954 35.4014 35.8259 36.0393C34.6565 36.6772 33.1814 36.9961 31.4006 36.9961C29.9122 36.9961 28.5434 36.7303 27.2943 36.1987C26.0451 35.6406 24.9686 34.8698 24.065 33.8864C23.1879 32.9029 22.4969 31.7202 21.9919 30.3381C21.4869 28.956 21.2344 27.4277 21.2344 25.7532C21.2344 24.0787 21.4603 22.5504 21.9121 21.1683C22.364 19.7862 23.0018 18.6034 23.8258 17.62C24.6763 16.6366 25.6996 15.8791 26.8956 15.3475C28.0916 14.7893 29.4205 14.5103 30.8824 14.5103C32.3176 14.5103 33.5934 14.7628 34.7096 15.2678C35.8525 15.7462 36.8226 16.4239 37.62 17.3011C38.4173 18.1516 39.0287 19.1616 39.4539 20.3311C39.8792 21.5005 40.0918 22.7498 40.0918 24.0787C40.0918 24.5837 40.0253 24.9957 39.8924 25.3146C39.7861 25.607 39.4938 25.7532 39.0154 25.7532H26.2976C26.2976 27.215 26.457 28.4775 26.776 29.5407C27.1215 30.6038 27.5733 31.481 28.1315 32.172C28.7162 32.8365 29.4072 33.3282 30.2046 33.6471C31.002 33.9661 31.8658 34.1256 32.796 34.1256C34.0718 34.1256 35.1349 33.8731 35.9854 33.3681C36.8625 32.8631 37.5801 32.3182 38.1383 31.7335C38.723 31.1221 39.1748 30.5773 39.4938 30.0988C39.8127 29.5938 40.0652 29.3413 40.2513 29.3413C40.4107 29.3413 40.4905 29.4742 40.4905 29.74ZM34.9887 24.3578C35.0153 23.082 34.9356 21.9391 34.7495 20.9291C34.5635 19.8925 34.2844 19.0154 33.9123 18.2978C33.5668 17.5536 33.1282 16.9821 32.5967 16.5834C32.0917 16.1847 31.5202 15.9854 30.8824 15.9854C29.58 15.9854 28.5302 16.7429 27.7328 18.2579C26.9355 19.7729 26.4703 21.8062 26.3374 24.3578H34.9887Z" fill="#E63157"/>
<path d="M20.137 10.673C20.2696 10.6731 20.3372 10.7395 20.3372 10.8722C20.3372 11.005 20.2033 11.1243 19.9378 11.2306C19.6987 11.3369 19.4331 11.5236 19.1409 11.7892C18.8486 12.0284 18.5688 12.4005 18.303 12.9054C18.0639 13.3838 17.9446 14.1019 17.9446 15.0587V29.7296C17.9446 30.3819 17.9195 31.0049 17.8753 31.5988H17.8802C18.0303 37.1298 13.5615 39.2353 10.1204 39.8029C6.74484 40.4607 4.01771 39.4716 1.62726 36.8146C-1.46173 33.3809 0.426179 29.6054 2.51984 29.6564C4.8577 29.7134 5.14674 31.1569 5.46516 34.2452C5.65612 36.0969 6.32961 37.2421 7.45148 37.8849C11.2969 39.0899 12.4373 34.7921 12.7171 32.4708C12.7457 31.8738 12.762 31.2394 12.762 30.5675V15.0587C12.762 14.1021 12.6293 13.3838 12.3636 12.9054C12.0979 12.4006 11.8045 12.0284 11.4857 11.7892C11.1936 11.5237 10.9143 11.3369 10.6487 11.2306C10.3832 11.1243 10.2504 11.005 10.2503 10.8722C10.2503 10.7394 10.3167 10.673 10.4495 10.673H20.137Z" fill="#E63157"/>
<path d="M202.927 6.00153C201.844 8.66562 199.686 10.7507 196.078 13.0279C192.471 10.7507 190.313 8.66562 189.23 6.00153C188.77 4.8691 188.548 3.63822 188.836 2.5016C189.123 1.36498 190.1 0.290669 191.448 0.050204C192.93 -0.214224 194.455 0.599649 195.227 1.69892C195.704 2.37837 195.949 3.14291 196.078 3.92942C196.208 3.14292 196.453 2.37837 196.93 1.69892C197.702 0.599649 199.227 -0.214224 200.709 0.050204C202.057 0.290669 203.034 1.36498 203.321 2.5016C203.609 3.6382 203.387 4.8691 202.927 6.00153Z" fill="#E63157"/>
</svg>
