<svg width="256" height="50" viewBox="0 0 256 50" fill="none" xmlns="http://www.w3.org/2000/svg">
<path d="M251.939 18.2372C252.072 18.1708 252.204 18.1376 252.337 18.1376C252.57 18.1376 252.686 18.2871 252.686 18.5861V40.4141C252.686 41.6101 252.836 42.5238 253.135 43.155C253.467 43.7531 253.816 44.2182 254.181 44.5504C254.547 44.8494 254.879 45.0654 255.178 45.1983C255.51 45.3312 255.676 45.4807 255.676 45.6468C255.676 45.8129 255.593 45.896 255.427 45.896H243.716C243.55 45.896 243.467 45.8129 243.467 45.6468C243.467 45.4807 243.616 45.3312 243.915 45.1983C244.248 45.0654 244.596 44.8494 244.962 44.5504C245.327 44.2182 245.66 43.7531 245.959 43.155C246.291 42.5238 246.457 41.6101 246.457 40.4141V28.603C246.457 27.407 246.374 26.4767 246.208 25.8122C246.042 25.1145 245.826 24.5996 245.56 24.2673C245.294 23.9019 244.995 23.6693 244.663 23.5696C244.364 23.47 244.081 23.4201 243.816 23.4201C243.583 23.4201 243.467 23.3205 243.467 23.1211C243.467 22.9882 243.566 22.8719 243.766 22.7723L251.939 18.2372Z" fill="white"/>
<path d="M224.282 9.2666C224.415 9.20016 224.548 9.16693 224.681 9.16693C224.914 9.16693 225.03 9.31644 225.03 9.61545V26.2605C225.296 25.1309 225.645 24.0844 226.076 23.1209C226.542 22.1242 227.09 21.2604 227.721 20.5294C228.352 19.7985 229.083 19.2171 229.914 18.7852C230.778 18.3533 231.758 18.1373 232.854 18.1373C233.851 18.1373 234.814 18.3367 235.744 18.7354C236.708 19.1008 237.555 19.6822 238.286 20.4796C239.05 21.277 239.648 22.2903 240.08 23.5196C240.545 24.7489 240.778 26.2107 240.778 27.9051V40.4139C240.778 41.6099 240.927 42.5236 241.226 43.1548C241.558 43.7528 241.907 44.218 242.273 44.5502C242.638 44.8492 242.97 45.0652 243.269 45.1981C243.602 45.331 243.768 45.4805 243.768 45.6466C243.768 45.8127 243.685 45.8958 243.519 45.8958H231.807C231.641 45.8958 231.558 45.8127 231.558 45.6466C231.558 45.4805 231.708 45.331 232.007 45.1981C232.339 45.0652 232.688 44.8492 233.053 44.5502C233.419 44.218 233.751 43.7528 234.05 43.1548C234.382 42.5236 234.548 41.6099 234.548 40.4139V26.5596C234.548 25.6957 234.499 24.8818 234.399 24.1176C234.332 23.3535 234.183 22.6724 233.95 22.0744C233.751 21.4763 233.435 21.0112 233.003 20.679C232.605 20.3135 232.073 20.1308 231.409 20.1308C230.412 20.1308 229.515 20.5294 228.718 21.3268C227.954 22.091 227.289 23.1043 226.724 24.3668C226.193 25.6293 225.777 27.0745 225.478 28.7025C225.179 30.2972 225.03 31.9418 225.03 33.6362V40.4139C225.03 41.6099 225.179 42.5236 225.478 43.1548C225.811 43.7528 226.16 44.218 226.525 44.5502C226.89 44.8492 227.223 45.0652 227.522 45.1981C227.854 45.331 228.02 45.4805 228.02 45.6466C228.02 45.8127 227.937 45.8958 227.771 45.8958H216.06C215.894 45.8958 215.811 45.8127 215.811 45.6466C215.811 45.4805 215.96 45.331 216.259 45.1981C216.591 45.0652 216.94 44.8492 217.306 44.5502C217.671 44.218 218.003 43.7528 218.302 43.1548C218.634 42.5236 218.801 41.6099 218.801 40.4139V19.6324C218.801 18.4364 218.718 17.5061 218.551 16.8416C218.385 16.1439 218.169 15.6289 217.904 15.2967C217.638 14.9312 217.339 14.6987 217.007 14.599C216.708 14.4993 216.425 14.4495 216.159 14.4495C215.927 14.4495 215.811 14.3498 215.811 14.1505C215.811 14.0176 215.91 13.9013 216.11 13.8016L224.282 9.2666Z" fill="white"/>
<path d="M211.035 18.487H214.174C214.739 18.487 215.021 18.7694 215.021 19.3342C215.021 19.9323 214.739 20.2313 214.174 20.2313H211.035V34.9328C211.035 36.8265 211.151 38.3548 211.384 39.5177C211.649 40.6805 211.982 41.6107 212.38 42.3084C212.779 42.9729 213.194 43.4547 213.626 43.7537C214.058 44.0527 214.473 44.2686 214.872 44.4015C215.271 44.5012 215.586 44.6009 215.819 44.7006C216.085 44.767 216.217 44.9165 216.217 45.1491C216.217 45.3484 216.085 45.5312 215.819 45.6973C215.586 45.8302 214.938 45.8966 213.875 45.8966C211.849 45.8966 210.237 45.5478 209.041 44.8501C207.845 44.1524 206.932 43.2719 206.3 42.2088C205.669 41.1124 205.254 39.9163 205.055 38.6206C204.888 37.2917 204.805 35.9959 204.805 34.7334V20.2313H203.061C202.729 20.2313 202.48 20.1316 202.314 19.9323C202.148 19.6997 202.064 19.4505 202.064 19.1847C202.064 18.9189 202.148 18.6698 202.314 18.4372C202.48 18.2046 202.696 18.0053 202.961 17.8392L209.988 12.9054C210.221 12.7393 210.42 12.6563 210.586 12.6563C210.885 12.6563 211.035 12.8556 211.035 13.2543V18.487Z" fill="white"/>
<path d="M193.657 41.6101C193.025 43.0055 192.062 44.1351 190.766 44.9989C189.504 45.8295 187.826 46.2448 185.733 46.2448C184.736 46.2448 183.706 46.1285 182.643 45.896C181.58 45.6302 180.617 45.2149 179.753 44.6501C178.889 44.0853 178.175 43.3378 177.61 42.4075C177.078 41.4772 176.812 40.3476 176.812 39.0187C176.812 37.4239 177.195 36.1282 177.959 35.1315C178.756 34.1016 179.736 33.271 180.899 32.6397C182.095 31.9752 183.391 31.4437 184.786 31.045C186.215 30.6463 187.544 30.2808 188.773 29.9486C190.035 29.6164 191.115 29.2509 192.012 28.8522C192.909 28.4535 193.441 27.9219 193.607 27.2575C193.507 24.8986 193.125 23.1045 192.461 21.8752C191.796 20.6127 190.534 19.9815 188.673 19.9815C187.643 19.9815 186.829 20.1642 186.231 20.5297C185.666 20.8951 185.218 21.3603 184.886 21.9251C184.587 22.4899 184.354 23.0879 184.188 23.7191C184.022 24.3504 183.823 24.9484 183.59 25.5132C183.357 26.078 183.025 26.5432 182.593 26.9086C182.195 27.2741 181.613 27.4568 180.849 27.4568C179.886 27.4568 179.138 27.1412 178.607 26.5099C178.108 25.8787 177.859 25.0813 177.859 24.1178C177.859 23.0214 178.175 22.0912 178.806 21.327C179.437 20.5629 180.251 19.9483 181.248 19.4831C182.278 19.018 183.424 18.6858 184.686 18.4864C185.982 18.2538 187.278 18.1376 188.573 18.1376C190.6 18.1376 192.328 18.4033 193.756 18.9349C195.185 19.4665 196.348 20.2307 197.245 21.2274C198.175 22.2241 198.839 23.4534 199.238 24.9152C199.67 26.3438 199.886 27.9884 199.886 29.8489V40.4141C199.886 41.6101 200.035 42.5238 200.334 43.155C200.667 43.7531 201.015 44.2182 201.381 44.5504C201.746 44.8494 202.079 45.0654 202.378 45.1983C202.71 45.3312 202.876 45.4807 202.876 45.6468C202.876 45.8129 202.793 45.896 202.627 45.896H194.404C193.906 45.896 193.657 45.6468 193.657 45.1485V41.6101ZM193.657 28.7525C193.258 29.2509 192.71 29.6994 192.012 30.0981C191.348 30.4636 190.633 30.829 189.869 31.1945C189.105 31.5267 188.308 31.8922 187.477 32.2909C186.68 32.6896 185.965 33.1879 185.334 33.7859C184.703 34.3507 184.171 35.0484 183.739 35.879C183.341 36.6764 183.141 37.6731 183.141 38.8692C183.141 40.5636 183.54 41.9091 184.338 42.9058C185.168 43.9026 186.364 44.4009 187.926 44.4009C189.753 44.4009 191.165 43.7364 192.162 42.4075C193.158 41.0453 193.657 39.1848 193.657 36.8259V28.7525Z" fill="white"/>
<path d="M163.647 46.2448C162.351 46.2448 160.989 46.0953 159.56 45.7963C158.132 45.4973 156.82 45.0322 155.624 44.4009C154.461 43.7364 153.481 42.9058 152.683 41.9091C151.919 40.8792 151.537 39.6499 151.537 38.2213C151.537 37.1249 151.77 36.2611 152.235 35.6298C152.733 34.9986 153.464 34.683 154.428 34.683C155.291 34.683 155.923 34.9322 156.321 35.4305C156.72 35.8956 157.036 36.4937 157.268 37.2246C157.501 37.9223 157.7 38.703 157.866 39.5669C158.065 40.3975 158.381 41.1782 158.813 41.9091C159.245 42.6068 159.843 43.2049 160.607 43.7032C161.404 44.1684 162.517 44.4009 163.946 44.4009C164.909 44.4009 165.723 44.2846 166.388 44.0521C167.085 43.8195 167.65 43.5371 168.082 43.2049C168.514 42.8394 168.83 42.4407 169.029 42.0088C169.262 41.5769 169.378 41.145 169.378 40.7131C169.378 39.816 168.963 39.0021 168.132 38.2711C167.301 37.5402 166.272 36.8425 165.042 36.178C163.813 35.5136 162.467 34.8325 161.006 34.1348C159.577 33.4371 158.248 32.6563 157.019 31.7925C155.79 30.9287 154.76 29.9652 153.929 28.902C153.099 27.8057 152.683 26.5265 152.683 25.0647C152.683 23.9019 152.966 22.8886 153.53 22.0247C154.095 21.1277 154.859 20.3968 155.823 19.832C156.786 19.2672 157.899 18.8519 159.162 18.5861C160.424 18.2871 161.737 18.1376 163.099 18.1376C164.328 18.1376 165.574 18.2705 166.836 18.5362C168.132 18.7688 169.295 19.1675 170.325 19.7323C171.388 20.2639 172.252 20.9782 172.916 21.8752C173.581 22.739 173.913 23.8022 173.913 25.0647C173.913 26.1279 173.664 27.0083 173.165 27.706C172.667 28.3705 171.936 28.7027 170.973 28.7027C170.208 28.7027 169.627 28.4867 169.228 28.0548C168.83 27.6229 168.514 27.0914 168.282 26.4601C168.082 25.7956 167.883 25.0979 167.684 24.367C167.517 23.6029 167.268 22.9052 166.936 22.2739C166.604 21.6094 166.139 21.0612 165.541 20.6293C164.943 20.1974 164.112 19.9815 163.049 19.9815C162.285 19.9815 161.637 20.0978 161.105 20.3303C160.607 20.5297 160.192 20.7955 159.859 21.1277C159.56 21.4599 159.345 21.8254 159.212 22.2241C159.079 22.5895 159.012 22.9384 159.012 23.2706C159.012 24.2341 159.428 25.0979 160.258 25.8621C161.089 26.6262 162.119 27.3571 163.348 28.0548C164.577 28.7525 165.906 29.4668 167.335 30.1978C168.796 30.8955 170.142 31.6596 171.371 32.4902C172.601 33.3208 173.63 34.2677 174.461 35.3308C175.292 36.394 175.707 37.6233 175.707 39.0187C175.707 40.2479 175.358 41.3277 174.66 42.258C173.996 43.155 173.099 43.9026 171.969 44.5006C170.84 45.0986 169.544 45.5471 168.082 45.8461C166.654 46.1119 165.175 46.2448 163.647 46.2448Z" fill="white"/>
<path d="M131.956 18.2372C132.089 18.1708 132.222 18.1376 132.355 18.1376C132.587 18.1376 132.704 18.2871 132.704 18.5861V26.2608C132.97 25.1312 133.318 24.0846 133.75 23.1211C134.215 22.1244 134.764 21.2606 135.395 20.5297C136.026 19.7987 136.757 19.2173 137.588 18.7854C138.451 18.3535 139.431 18.1376 140.528 18.1376C141.524 18.1376 142.488 18.3369 143.418 18.7356C144.382 19.101 145.229 19.6825 145.96 20.4798C146.724 21.2772 147.322 22.2905 147.754 23.5198C148.219 24.7491 148.451 26.2109 148.451 27.9053V40.4141C148.451 41.6101 148.601 42.5238 148.9 43.155C149.232 43.7531 149.581 44.2182 149.947 44.5504C150.312 44.8494 150.644 45.0654 150.943 45.1983C151.275 45.3312 151.442 45.4807 151.442 45.6468C151.442 45.8129 151.358 45.896 151.192 45.896H139.481C139.315 45.896 139.232 45.8129 139.232 45.6468C139.232 45.4807 139.382 45.3312 139.681 45.1983C140.013 45.0654 140.362 44.8494 140.727 44.5504C141.093 44.2182 141.425 43.7531 141.724 43.155C142.056 42.5238 142.222 41.6101 142.222 40.4141V26.5598C142.222 25.696 142.172 24.882 142.073 24.1178C142.006 23.3537 141.857 22.6726 141.624 22.0746C141.425 21.4765 141.109 21.0114 140.677 20.6792C140.279 20.3137 139.747 20.131 139.083 20.131C138.086 20.131 137.189 20.5297 136.392 21.327C135.627 22.0912 134.963 23.1045 134.398 24.367C133.867 25.6295 133.451 27.0747 133.152 28.7027C132.853 30.2974 132.704 31.942 132.704 33.6364V40.4141C132.704 41.6101 132.853 42.5238 133.152 43.155C133.485 43.7531 133.833 44.2182 134.199 44.5504C134.564 44.8494 134.896 45.0654 135.195 45.1983C135.528 45.3312 135.694 45.4807 135.694 45.6468C135.694 45.8129 135.611 45.896 135.445 45.896H123.734C123.567 45.896 123.484 45.8129 123.484 45.6468C123.484 45.4807 123.634 45.3312 123.933 45.1983C124.265 45.0654 124.614 44.8494 124.979 44.5504C125.345 44.2182 125.677 43.7531 125.976 43.155C126.308 42.5238 126.474 41.6101 126.474 40.4141V28.603C126.474 27.407 126.391 26.4767 126.225 25.8122C126.059 25.1145 125.843 24.5996 125.577 24.2673C125.312 23.9019 125.013 23.6693 124.68 23.5696C124.381 23.47 124.099 23.4201 123.833 23.4201C123.601 23.4201 123.484 23.3205 123.484 23.1211C123.484 22.9882 123.584 22.8719 123.783 22.7723L131.956 18.2372Z" fill="white"/>
<path d="M114.726 41.6101C114.095 43.0055 113.131 44.1351 111.836 44.9989C110.573 45.8295 108.895 46.2448 106.802 46.2448C105.806 46.2448 104.776 46.1285 103.712 45.896C102.649 45.6302 101.686 45.2149 100.822 44.6501C99.9583 44.0853 99.244 43.3378 98.6792 42.4075C98.1476 41.4772 97.8818 40.3476 97.8818 39.0187C97.8818 37.4239 98.2639 36.1282 99.028 35.1315C99.8254 34.1016 100.805 33.271 101.968 32.6397C103.164 31.9752 104.46 31.4437 105.855 31.045C107.284 30.6463 108.613 30.2808 109.842 29.9486C111.105 29.6164 112.184 29.2509 113.081 28.8522C113.978 28.4535 114.51 27.9219 114.676 27.2575C114.576 24.8986 114.194 23.1045 113.53 21.8752C112.865 20.6127 111.603 19.9815 109.742 19.9815C108.713 19.9815 107.899 20.1642 107.301 20.5297C106.736 20.8951 106.287 21.3603 105.955 21.9251C105.656 22.4899 105.423 23.0879 105.257 23.7191C105.091 24.3504 104.892 24.9484 104.659 25.5132C104.427 26.078 104.095 26.5432 103.663 26.9086C103.264 27.2741 102.683 27.4568 101.918 27.4568C100.955 27.4568 100.207 27.1412 99.6759 26.5099C99.1775 25.8787 98.9284 25.0813 98.9284 24.1178C98.9284 23.0214 99.244 22.0912 99.8752 21.327C100.506 20.5629 101.32 19.9483 102.317 19.4831C103.347 19.018 104.493 18.6858 105.756 18.4864C107.051 18.2538 108.347 18.1376 109.643 18.1376C111.669 18.1376 113.397 18.4033 114.826 18.9349C116.254 19.4665 117.417 20.2307 118.314 21.2274C119.244 22.2241 119.909 23.4534 120.307 24.9152C120.739 26.3438 120.955 27.9884 120.955 29.8489V40.4141C120.955 41.6101 121.105 42.5238 121.404 43.155C121.736 43.7531 122.085 44.2182 122.45 44.5504C122.816 44.8494 123.148 45.0654 123.447 45.1983C123.779 45.3312 123.945 45.4807 123.945 45.6468C123.945 45.8129 123.862 45.896 123.696 45.896H115.473C114.975 45.896 114.726 45.6468 114.726 45.1485V41.6101ZM114.726 28.7525C114.327 29.2509 113.779 29.6994 113.081 30.0981C112.417 30.4636 111.703 30.829 110.938 31.1945C110.174 31.5267 109.377 31.8922 108.546 32.2909C107.749 32.6896 107.035 33.1879 106.404 33.7859C105.772 34.3507 105.241 35.0484 104.809 35.879C104.41 36.6764 104.211 37.6731 104.211 38.8692C104.211 40.5636 104.609 41.9091 105.407 42.9058C106.237 43.9026 107.433 44.4009 108.995 44.4009C110.822 44.4009 112.234 43.7364 113.231 42.4075C114.228 41.0453 114.726 39.1848 114.726 36.8259V28.7525Z" fill="white"/>
<path d="M77.6031 23.9687C77.2044 22.8723 76.7559 22.0085 76.2575 21.3772C75.7924 20.746 75.3439 20.2642 74.912 19.932C74.5133 19.5998 74.1645 19.3672 73.8655 19.2343C73.5997 19.0682 73.4668 18.9021 73.4668 18.736C73.4668 18.5698 73.5499 18.4868 73.716 18.4868H85.8258C85.9919 18.4868 86.0749 18.5698 86.0749 18.736C86.0749 18.9021 85.8922 19.0682 85.5268 19.2343C85.1945 19.3672 84.8623 19.5998 84.5301 19.932C84.1978 20.231 83.9487 20.6962 83.7825 21.3274C83.6497 21.9587 83.7992 22.8391 84.2311 23.9687L88.8158 36.2781L93.4504 23.9189C93.8823 22.7893 94.0318 21.9254 93.899 21.3274C93.7993 20.6962 93.5999 20.2144 93.3009 19.8822C93.0019 19.5499 92.6863 19.3174 92.3541 19.1845C92.0219 19.0516 91.8557 18.9021 91.8557 18.736C91.8557 18.5698 91.9388 18.4868 92.1049 18.4868H99.4306C99.5967 18.4868 99.6798 18.5698 99.6798 18.736C99.6798 18.9021 99.5303 19.0682 99.2312 19.2343C98.9322 19.3672 98.5502 19.5998 98.0851 19.932C97.6532 20.231 97.188 20.6962 96.6897 21.3274C96.1913 21.9254 95.7262 22.7893 95.2943 23.9189L87.0218 45.8465C86.9221 46.1123 86.7228 46.2452 86.4238 46.2452C86.1248 46.2452 85.9254 46.1123 85.8258 45.8465L77.6031 23.9687Z" fill="white"/>
<path d="M75.6902 37.1748C75.6902 37.5734 75.5075 38.2711 75.142 39.2678C74.8098 40.2313 74.2118 41.2447 73.348 42.3078C72.4842 43.3378 71.3214 44.2514 69.8596 45.0488C68.3977 45.8461 66.5539 46.2448 64.3279 46.2448C62.4674 46.2448 60.7564 45.9126 59.195 45.2481C57.6335 44.5504 56.288 43.5869 55.1584 42.3577C54.062 41.1284 53.1982 39.6499 52.567 37.9223C51.9357 36.1947 51.6201 34.2843 51.6201 32.1912C51.6201 30.0981 51.9025 28.1877 52.4673 26.4601C53.0321 24.7325 53.8294 23.254 54.8594 22.0247C55.9225 20.7955 57.2016 19.8486 58.6966 19.1841C60.1917 18.4864 61.8528 18.1376 63.6801 18.1376C65.4741 18.1376 67.0688 18.4532 68.4642 19.0844C69.8928 19.6825 71.1054 20.5297 72.1021 21.626C73.0988 22.6892 73.8629 23.9517 74.3945 25.4136C74.9261 26.8754 75.1918 28.4369 75.1918 30.0981C75.1918 30.7294 75.1088 31.2443 74.9427 31.643C74.8098 32.0085 74.4443 32.1912 73.8463 32.1912H57.9491C57.9491 34.0185 58.1484 35.5966 58.5471 36.9256C58.979 38.2545 59.5438 39.3509 60.2415 40.2147C60.9724 41.0453 61.8362 41.66 62.8329 42.0586C63.8296 42.4573 64.9093 42.6567 66.0721 42.6567C67.6668 42.6567 68.9958 42.341 70.0589 41.7098C71.1552 41.0785 72.0523 40.3975 72.75 39.6665C73.4809 38.9024 74.0456 38.2213 74.4443 37.6233C74.843 36.992 75.1586 36.6764 75.3912 36.6764C75.5905 36.6764 75.6902 36.8425 75.6902 37.1748ZM68.813 30.4469C68.8462 28.8522 68.7466 27.4236 68.514 26.1611C68.2815 24.8654 67.9326 23.769 67.4675 22.8719C67.0356 21.9417 66.4874 21.2274 65.823 20.729C65.1917 20.2307 64.4774 19.9815 63.6801 19.9815C62.0521 19.9815 60.7398 20.9284 59.7431 22.8221C58.7465 24.7159 58.1651 27.2575 57.9989 30.4469H68.813Z" fill="white"/>
<path d="M50.613 37.1748C50.613 37.5734 50.4303 38.2711 50.0649 39.2678C49.7326 40.2313 49.1346 41.2447 48.2708 42.3078C47.407 43.3378 46.2442 44.2514 44.7824 45.0488C43.3206 45.8461 41.4767 46.2448 39.2508 46.2448C37.3903 46.2448 35.6793 45.9126 34.1178 45.2481C32.5563 44.5504 31.2108 43.5869 30.0812 42.3577C28.9849 41.1284 28.1211 39.6499 27.4898 37.9223C26.8586 36.1947 26.543 34.2843 26.543 32.1912C26.543 30.0981 26.8254 28.1877 27.3902 26.4601C27.9549 24.7325 28.7523 23.254 29.7822 22.0247C30.8453 20.7955 32.1244 19.8486 33.6195 19.1841C35.1145 18.4864 36.7757 18.1376 38.6029 18.1376C40.397 18.1376 41.9917 18.4532 43.387 19.0844C44.8156 19.6825 46.0283 20.5297 47.025 21.626C48.0216 22.6892 48.7858 23.9517 49.3173 25.4136C49.8489 26.8754 50.1147 28.4369 50.1147 30.0981C50.1147 30.7294 50.0316 31.2443 49.8655 31.643C49.7326 32.0085 49.3672 32.1912 48.7692 32.1912H32.872C32.872 34.0185 33.0713 35.5966 33.47 36.9256C33.9019 38.2545 34.4667 39.3509 35.1643 40.2147C35.8952 41.0453 36.759 41.66 37.7557 42.0586C38.7524 42.4573 39.8322 42.6567 40.995 42.6567C42.5897 42.6567 43.9186 42.341 44.9817 41.7098C46.0781 41.0785 46.9751 40.3975 47.6728 39.6665C48.4037 38.9024 48.9685 38.2213 49.3672 37.6233C49.7659 36.992 50.0815 36.6764 50.314 36.6764C50.5134 36.6764 50.613 36.8425 50.613 37.1748ZM43.7359 30.4469C43.7691 28.8522 43.6694 27.4236 43.4369 26.1611C43.2043 24.8654 42.8555 23.769 42.3903 22.8719C41.9584 21.9417 41.4103 21.2274 40.7458 20.729C40.1146 20.2307 39.4003 19.9815 38.6029 19.9815C36.975 19.9815 35.6627 20.9284 34.666 22.8221C33.6693 24.7159 33.0879 27.2575 32.9218 30.4469H43.7359Z" fill="white"/>
<path d="M25.1709 13.341C25.337 13.341 25.4208 13.424 25.4209 13.59C25.4208 13.7561 25.254 13.9054 24.9219 14.0383C24.6229 14.1712 24.2911 14.4044 23.9258 14.7365C23.5604 15.0355 23.2111 15.5009 22.8789 16.132C22.58 16.73 22.4307 17.6269 22.4306 18.8224V37.1623C22.4306 37.9776 22.3992 38.756 22.3437 39.4982H22.3506C22.5376 46.3938 16.9813 49.0296 12.6845 49.7472C8.44949 50.5828 5.03017 49.3487 2.03416 46.0187C-1.82754 41.7264 0.533172 37.0066 3.15037 37.0705C6.07225 37.142 6.43401 38.9457 6.83201 42.8058C7.07018 45.1158 7.90741 46.5483 9.30466 47.3527C14.1119 48.867 15.5427 43.5084 15.8955 40.6017C15.9317 39.8516 15.9521 39.0541 15.9521 38.2092V18.8224C15.9521 17.6267 15.7853 16.73 15.4531 16.132C15.1209 15.5009 14.756 15.0355 14.3574 14.7365C13.9919 14.4043 13.6428 14.1712 13.3105 14.0383C12.9786 13.9054 12.8126 13.756 12.8125 13.59C12.8125 13.424 12.8955 13.341 13.0615 13.341H25.1709Z" fill="white"/>
<path d="M253.659 7.5019C252.306 10.832 249.608 13.4384 245.099 16.2849C240.59 13.4384 237.892 10.832 236.539 7.5019C235.964 6.08636 235.686 4.54777 236.045 3.127C236.404 1.70622 237.625 0.363336 239.311 0.0627549C241.163 -0.26778 243.07 0.74956 244.035 2.12365C244.631 2.97296 244.938 3.92863 245.099 4.91177C245.26 3.92865 245.567 2.97296 246.163 2.12365C247.128 0.74956 249.035 -0.26778 250.888 0.0627549C252.573 0.363336 253.794 1.70622 254.153 3.127C254.512 4.54775 254.234 6.08636 253.659 7.5019Z" fill="white"/>
</svg>
