<svg width="42" height="42" viewBox="0 0 42 42" fill="none" xmlns="http://www.w3.org/2000/svg">
<path d="M38.8557 14.4708C41.5231 21.4954 40.0297 29.7422 34.3696 35.4023C26.6787 43.0932 14.209 43.0932 6.51816 35.4023C-1.17272 27.7116 -1.17272 15.2418 6.51816 7.55092C12.1755 1.8936 20.4197 0.397353 27.4469 3.06218" stroke="black" stroke-width="1.5" stroke-miterlimit="10" stroke-linecap="round"/>
<path d="M31.8248 14.3935C35.051 19.5646 34.4143 26.4604 29.9202 30.9545C24.6872 36.1874 16.1986 36.1874 10.9657 30.9545C5.73278 25.7216 5.73278 17.233 10.9657 12.0001C15.4598 7.50592 22.3556 6.86926 27.5267 10.0955" stroke="black" stroke-width="1.5" stroke-miterlimit="10" stroke-linecap="round"/>
<path d="M26.7066 19.5135C27.4131 21.7673 26.8732 24.3326 25.0867 26.1191C22.524 28.6818 18.3656 28.6818 15.8029 26.1191C13.2402 23.5564 13.2402 19.3979 15.8029 16.8352C17.5893 15.0488 20.1546 14.5089 22.4085 15.2154" stroke="black" stroke-width="1.5" stroke-miterlimit="10" stroke-linecap="round"/>
<path d="M31.8097 10.3917L37.3805 11.7182C37.5088 11.7488 37.6438 11.7106 37.7371 11.6173L41.0574 8.29701C41.2676 8.08681 41.1659 7.72759 40.8768 7.65882L35.7608 6.4407C35.6214 6.40749 35.5125 6.29859 35.4792 6.15911L34.2611 1.04312C34.1924 0.75405 33.8331 0.652346 33.6229 0.862537L30.3026 4.18284C30.2094 4.27611 30.1712 4.41116 30.2018 4.53943L31.5282 10.1103C31.5614 10.2498 31.6703 10.3587 31.8098 10.3919L31.8097 10.3917Z" stroke="black" stroke-width="1.5" stroke-miterlimit="10" stroke-linecap="round"/>
<path d="M20.4453 21.4773L31.5848 10.3379" stroke="black" stroke-width="1.5" stroke-miterlimit="10" stroke-linecap="round"/>
</svg>
