<svg width="290" height="80" viewBox="0 0 290 80" fill="none" xmlns="http://www.w3.org/2000/svg">
<path d="M121.8 22.3598C119.761 22.3598 117.752 22.7626 115.914 23.6259C114.191 24.4317 112.669 25.6116 111.492 27.108V22.849H102.85V57.1223H111.492V38.1871C111.492 35.4533 112.181 33.3813 113.56 31.9137C114.938 30.4461 116.833 29.7267 119.216 29.7267C121.57 29.7267 123.408 30.4461 124.758 31.9137C126.107 33.3813 126.796 35.4821 126.796 38.1871V57.1223H135.439V37.0072C135.439 32.4029 134.175 28.777 131.677 26.2159C129.179 23.6259 125.877 22.3598 121.8 22.3598Z" fill="white"/>
<path d="M167.195 27.741C165.96 26.1007 164.41 24.777 162.601 23.8561C160.677 22.8202 158.466 22.3022 155.911 22.3022C153.126 22.2734 150.369 23.0216 147.986 24.4605C145.574 25.9569 143.622 28.0864 142.358 30.6475C140.98 33.3238 140.291 36.4029 140.291 39.8561C140.291 43.3094 140.98 46.4748 142.358 49.1799C143.622 51.741 145.574 53.9281 147.986 55.4533C150.341 56.9497 153.068 57.6979 155.853 57.6691C158.208 57.7266 160.534 57.1799 162.601 56.0864C164.439 55.1367 166.018 53.7842 167.195 52.0864V57.0935H175.895V22.8202H167.195V27.7123V27.741ZM165.96 45.4101C165.185 46.8489 164.037 48.0576 162.63 48.8633C161.251 49.6691 159.701 50.072 158.122 50.072C156.571 50.072 155.049 49.6403 153.7 48.8346C152.293 47.9712 151.144 46.7338 150.369 45.2662C149.508 43.5971 149.048 41.7266 149.106 39.8561C149.106 37.7842 149.537 36 150.369 34.5036C150.943 33.4677 151.719 32.5468 152.638 31.8274C153.556 31.0792 154.647 30.5612 155.767 30.2446C156.916 29.9281 158.093 29.8418 159.27 29.9856C160.447 30.1295 161.567 30.5324 162.601 31.1079C164.008 31.9137 165.156 33.1223 165.932 34.5612C166.764 36.0576 167.166 37.8705 167.166 39.9712C167.166 42.072 166.764 43.8849 165.932 45.4101H165.96Z" fill="white"/>
<path d="M205.268 41.7554C205.268 44.4892 204.579 46.5611 203.229 48.0288C201.88 49.4964 199.985 50.2158 197.602 50.2158C195.219 50.2158 193.41 49.4964 192.06 48.0288C190.711 46.5611 190.021 44.4604 190.021 41.7554V22.8777H181.379V42.9928C181.379 46.0432 181.953 48.6906 183.13 50.8777C184.221 53.0072 185.916 54.7338 187.983 55.8849C190.165 57.036 192.606 57.6403 195.075 57.5827C197.085 57.5827 199.095 57.1798 200.904 56.3165C202.626 55.5396 204.12 54.3309 205.268 52.8345V57.1511H213.968V22.8777H205.268V41.7554Z" fill="white"/>
<path d="M250.807 22.8777H239.58L228.095 37.4101V11.3669H219.452V57.1511H228.095V42.5612L239.695 57.1511H250.921L235.732 40.0864L250.807 22.8777Z" fill="white"/>
<path d="M263.556 28.2015V22.849H254.913V57.1511H263.556V40.0864C263.556 36.9209 264.245 34.6763 265.623 33.4101C267.001 32.1439 269.04 31.4821 271.768 31.4821H274.065V22.3886C271.969 22.331 269.872 22.849 268.035 23.885C266.197 24.9209 264.647 26.4173 263.584 28.2303L263.556 28.2015Z" fill="white"/>
<path d="M286.756 22.8489H278.113V57.151H286.756V22.8489Z" fill="white"/>
<path d="M282.42 18.7625C285.263 18.7625 287.589 16.4316 287.589 13.5827C287.589 10.7338 285.263 8.40283 282.42 8.40283C279.578 8.40283 277.252 10.7338 277.252 13.5827C277.252 16.4316 279.578 18.7625 282.42 18.7625Z" fill="white"/>
<path d="M39.9109 80C61.9624 80 79.8218 62.1007 79.8218 40C79.8218 17.8993 61.9624 0 39.9109 0C17.8594 0 0 17.8993 0 40C0 62.1007 17.8594 80 39.9109 80Z" fill="white"/>
<path d="M51.9129 54.8202L51.8267 58.8777L51.5683 70.59V71.0504C31.8426 53.9281 28.4832 49.7554 27.8802 48.4893C27.8228 48.2015 27.7941 47.9425 27.8228 47.7123C27.8228 47.6259 27.8515 47.5396 27.8802 47.4533C27.8802 47.3957 27.9089 47.3094 27.9376 47.2231C28.1386 46.6763 28.4545 46.1295 28.8277 45.6691C29.0862 45.3238 29.402 44.9785 29.7178 44.6907C30.4069 44.0288 31.1248 43.3957 31.9 42.8202C32.2733 42.5324 32.6753 42.2446 33.106 41.9569C33.9099 41.4101 34.8 40.8346 35.7188 40.2878C42.8109 46.9065 51.798 54.7339 51.9416 54.8202H51.9129Z" fill="url(#paint0_linear_80_598)"/>
<path d="M52.1716 16.3743L52.0854 20.4318L52.028 22.4462L51.9419 26.5038L51.8844 28.5469L51.7983 32.6045C51.6547 32.662 42.6676 36.1728 35.7191 40.2879C34.8003 40.8347 33.9389 41.3815 33.1062 41.957C32.6755 42.2448 32.2735 42.5325 31.9003 42.8203C31.125 43.3958 30.4072 44.0002 29.7181 44.6908C29.4023 45.0074 29.1151 45.3239 28.828 45.698C28.1963 46.5038 27.8231 47.2807 27.7656 48.0289L27.8518 44.6333V44.0865V43.8851L27.9092 41.7556L28.024 37.5253L28.0815 35.4534L28.1963 31.252C29.632 25.3815 49.7884 17.2951 52.1429 16.3743H52.1716Z" fill="#265DF5"/>
<path d="M33.5945 20.8346C36.8678 20.8346 39.5094 18.1871 39.5094 14.9066C39.5094 11.626 36.8678 8.97852 33.5945 8.97852C30.3213 8.97852 27.6797 11.626 27.6797 14.9066C27.6797 18.1871 30.3213 20.8346 33.5945 20.8346Z" fill="#265DF5"/>
<defs>
<linearGradient id="paint0_linear_80_598" x1="31.4308" y1="44.1844" x2="36.6951" y2="66.3988" gradientUnits="userSpaceOnUse">
<stop stop-color="#0C3AB1"/>
<stop offset="0.541667" stop-color="#4294EB"/>
<stop offset="1" stop-color="#5DC9F0"/>
</linearGradient>
</defs>
</svg>
