<svg width="182" height="50" viewBox="0 0 182 50" fill="none" xmlns="http://www.w3.org/2000/svg">
<path d="M76.4399 13.9749C75.1605 13.9749 73.8992 14.2267 72.7459 14.7662C71.6647 15.2698 70.7096 16.0072 69.9708 16.9425V14.2806H64.5469V35.7015H69.9708V23.8669C69.9708 22.1583 70.4033 20.8633 71.2683 19.9461C72.1332 19.0288 73.3225 18.5792 74.8182 18.5792C76.2958 18.5792 77.4491 19.0288 78.296 19.9461C79.1429 20.8633 79.5754 22.1763 79.5754 23.8669V35.7015H84.9994V23.1295C84.9994 20.2518 84.2065 17.9856 82.6388 16.3849C81.071 14.7662 78.9988 13.9749 76.4399 13.9749Z" fill="#265DF5"/>
<path d="M104.929 17.3381C104.155 16.313 103.182 15.4856 102.046 14.9101C100.839 14.2626 99.4515 13.9389 97.8477 13.9389C96.0998 13.9209 94.3699 14.3885 92.8742 15.2878C91.3606 16.223 90.1352 17.554 89.3423 19.1547C88.4774 20.8273 88.0449 22.7518 88.0449 24.9101C88.0449 27.0684 88.4774 29.0468 89.3423 30.7374C90.1352 32.3381 91.3606 33.705 92.8742 34.6583C94.3519 35.5935 96.0637 36.0612 97.8117 36.0432C99.2893 36.0791 100.749 35.7374 102.046 35.054C103.2 34.4604 104.191 33.6151 104.929 32.554V35.6835H110.389V14.2626H104.929V17.3201V17.3381ZM104.155 28.3813C103.668 29.2806 102.947 30.036 102.064 30.5396C101.199 31.0432 100.226 31.295 99.2352 31.295C98.2622 31.295 97.3071 31.0252 96.4602 30.5216C95.5772 29.982 94.8564 29.2086 94.3699 28.2914C93.8293 27.2482 93.541 26.0791 93.577 24.9101C93.577 23.6151 93.8473 22.5 94.3699 21.5648C94.7303 20.9173 95.2168 20.3417 95.7934 19.8921C96.3701 19.4245 97.0548 19.1007 97.7576 18.9029C98.4784 18.705 99.2172 18.6511 99.956 18.741C100.695 18.8309 101.398 19.0827 102.046 19.4425C102.929 19.946 103.65 20.7014 104.137 21.6007C104.659 22.536 104.911 23.6691 104.911 24.982C104.911 26.295 104.659 27.4281 104.137 28.3813H104.155Z" fill="#265DF5"/>
<path d="M128.825 26.0971C128.825 27.8058 128.392 29.1007 127.545 30.018C126.698 30.9353 125.509 31.3849 124.013 31.3849C122.518 31.3849 121.382 30.9353 120.535 30.018C119.688 29.1007 119.256 27.7878 119.256 26.0971V14.2986H113.832V26.8705C113.832 28.777 114.192 30.4317 114.931 31.7986C115.616 33.1295 116.679 34.2087 117.977 34.9281C119.346 35.6475 120.878 36.0252 122.427 35.9892C123.689 35.9892 124.95 35.7374 126.085 35.1979C127.167 34.7123 128.104 33.9569 128.825 33.0216V35.7194H134.285V14.2986H128.825V26.0971Z" fill="#265DF5"/>
<path d="M157.404 14.2985H150.358L143.151 23.3812V7.10425H137.727V35.7194H143.151V26.6006L150.431 35.7194H157.476L147.944 25.0539L157.404 14.2985Z" fill="#265DF5"/>
<path d="M165.404 17.6259V14.2806H159.98V35.7194H165.404V25.054C165.404 23.0755 165.837 21.6727 166.702 20.8813C167.567 20.0899 168.846 19.6763 170.558 19.6763H172V13.9928C170.684 13.9568 169.369 14.2806 168.216 14.9281C167.062 15.5755 166.089 16.5108 165.422 17.6439L165.404 17.6259Z" fill="#265DF5"/>
<path d="M179.963 14.2805H174.539V35.7194H179.963V14.2805Z" fill="#265DF5"/>
<path d="M177.244 11.7267C179.028 11.7267 180.487 10.2698 180.487 8.48924C180.487 6.70867 179.028 5.25183 177.244 5.25183C175.46 5.25183 174 6.70867 174 8.48924C174 10.2698 175.46 11.7267 177.244 11.7267Z" fill="#265DF5"/>
<path d="M25.0475 50C38.8867 50 50.095 38.813 50.095 25C50.095 11.187 38.8867 0 25.0475 0C11.2083 0 0 11.187 0 25C0 38.813 11.2083 50 25.0475 50Z" fill="#265DF5"/>
<path d="M32.5808 34.2627L32.5267 36.7986L32.3645 44.1188V44.4065C19.9849 33.7051 17.8766 31.0972 17.4982 30.3058C17.4621 30.126 17.4441 29.9641 17.4621 29.8202C17.4621 29.7663 17.4802 29.7123 17.4982 29.6583C17.4982 29.6224 17.5162 29.5684 17.5342 29.5145C17.6604 29.1727 17.8586 28.831 18.0928 28.5432C18.255 28.3274 18.4532 28.1116 18.6515 27.9317C19.0839 27.5181 19.5344 27.1224 20.021 26.7627C20.2552 26.5828 20.5075 26.403 20.7778 26.2231C21.2823 25.8814 21.841 25.5217 22.4176 25.1799C26.8685 29.3166 32.5087 34.2087 32.5988 34.2627H32.5808Z" fill="url(#paint0_linear_226_804)"/>
<path d="M32.7426 10.2339L32.6886 12.7699L32.6525 14.0289L32.5985 16.5648L32.5624 17.8418L32.5084 20.3778C32.4183 20.4137 26.7781 22.608 22.4173 25.1799C21.8406 25.5217 21.3 25.8634 20.7775 26.2231C20.5072 26.403 20.2549 26.5828 20.0206 26.7627C19.5341 27.1224 19.0836 27.5001 18.6511 27.9317C18.4529 28.1296 18.2727 28.3274 18.0925 28.5612C17.6961 29.0648 17.4618 29.5504 17.4258 30.0181L17.4798 27.8958V27.554V27.4281L17.5159 26.0972L17.588 23.4533L17.624 22.1583L17.6961 19.5324C18.5971 15.8634 31.247 10.8094 32.7246 10.2339H32.7426Z" fill="white"/>
<path d="M21.0832 13.0216C23.1374 13.0216 24.7953 11.367 24.7953 9.31661C24.7953 7.26625 23.1374 5.61157 21.0832 5.61157C19.0289 5.61157 17.3711 7.26625 17.3711 9.31661C17.3711 11.367 19.0289 13.0216 21.0832 13.0216Z" fill="white"/>
<defs>
<linearGradient id="paint0_linear_226_804" x1="29.9703" y1="38.1087" x2="15.3057" y2="21.2365" gradientUnits="userSpaceOnUse">
<stop stop-color="white"/>
<stop offset="1" stop-color="#265DF5"/>
</linearGradient>
</defs>
</svg>
