<svg width="143" height="50" viewBox="0 0 143 50" fill="none" xmlns="http://www.w3.org/2000/svg">
<path d="M119.801 32.4032C118.565 31.6482 117.165 31.1828 115.712 31.0439C114.259 30.9049 112.793 31.0962 111.429 31.6026L110.429 31.9125V25.1029H106.375V49.113H110.429V37.6116C110.36 37.1013 110.49 36.5846 110.793 36.1627C111.096 35.7407 111.55 35.4439 112.066 35.3302C113.627 34.7967 115.328 34.7967 116.89 35.3302C117.385 35.4399 117.82 35.7283 118.106 36.1373C118.391 36.5463 118.507 37.0454 118.43 37.5341V47.6495C118.419 47.8466 118.452 48.0436 118.525 48.2276C118.599 48.4115 118.712 48.5782 118.856 48.7165C119.001 48.8548 119.174 48.9617 119.365 49.03C119.555 49.0984 119.758 49.1267 119.961 49.113H122.51V37.0606C122.53 36.1287 122.295 35.2083 121.828 34.3942C121.362 33.5801 120.68 32.9017 119.854 32.429" fill="#01808C"/>
<path fill-rule="evenodd" clip-rule="evenodd" d="M72.4063 26.8697C72.4169 27.1713 72.3655 27.472 72.2549 27.754C72.1444 28.036 71.977 28.2936 71.7626 28.5118C71.5482 28.7299 71.2911 28.9042 71.0065 29.0244C70.7219 29.1445 70.4154 29.208 70.1051 29.2113C69.7878 29.2228 69.4712 29.1723 69.1743 29.0626C68.8774 28.9529 68.6062 28.7863 68.3767 28.5727C68.1473 28.3592 67.9642 28.103 67.8385 27.8193C67.7127 27.5356 67.6468 27.2303 67.6447 26.9214C67.6376 26.3072 67.8817 25.7155 68.3232 25.2763C68.7647 24.8372 69.3675 24.5866 69.9989 24.5797C70.6303 24.5729 71.2387 24.8103 71.6902 25.2398C72.1417 25.6692 72.3992 26.2555 72.4063 26.8697Z" fill="#01808C"/>
<path d="M90.8239 31.6966H87.3898C86.9647 31.6864 86.5421 31.764 86.1501 31.9243C85.758 32.0846 85.4053 32.3238 85.1152 32.6263C85.1152 32.6263 79.3446 40.3743 79.3623 40.426L85.1152 48.174C85.4001 48.4835 85.7516 48.728 86.1448 48.8902C86.5379 49.0524 86.9631 49.1283 87.3898 49.1123H90.8239L84.2921 40.3829L90.8239 31.6966Z" fill="#01808C"/>
<path d="M79.328 25.1032H75.2656V49.1133H79.328V25.0946V25.1032Z" fill="#01808C"/>
<path d="M67.9901 47.6584C67.9799 47.8539 68.0121 48.0494 68.0846 48.2321C68.1572 48.4148 68.2684 48.5805 68.4112 48.7185C68.554 48.8566 68.725 48.9639 68.9132 49.0334C69.1014 49.1029 69.3026 49.133 69.5036 49.1219H72.0437V31.4307H67.9901V47.6584Z" fill="#01808C"/>
<path d="M62.5211 32.4032C61.2846 31.6482 59.8847 31.1828 58.4317 31.0439C56.9787 30.9049 55.5124 31.0962 54.1484 31.6026L53.1483 31.9125V25.1029H49.0947V49.113H53.1571V37.6116C53.0866 37.1022 53.2146 36.5855 53.516 36.1633C53.8174 35.7411 54.2703 35.4439 54.7857 35.3302C56.3467 34.7967 58.0482 34.7967 59.6092 35.3302C60.105 35.4399 60.5395 35.7283 60.8253 36.1373C61.1111 36.5463 61.2268 37.0454 61.1492 37.5341V47.6495C61.1401 47.8452 61.1735 48.0404 61.2471 48.2227C61.3208 48.4049 61.4331 48.5701 61.5767 48.7073C61.7203 48.8446 61.892 48.9508 62.0806 49.0193C62.2693 49.0877 62.4706 49.1167 62.6715 49.1044H65.2117V37.052C65.2314 36.1203 64.9959 35.2002 64.5293 34.3863C64.0627 33.5723 63.3818 32.8938 62.5565 32.4204" fill="#01808C"/>
<path d="M104.525 43.3457V43.1735C104.339 41.9714 103.71 40.876 102.755 40.0916C102.193 39.6241 101.564 39.2384 100.888 38.9466C99.3832 38.3009 97.8609 37.6725 96.374 36.9838H96.4713C96.3301 36.8858 96.2148 36.7568 96.1348 36.6071C96.0548 36.4575 96.0124 36.2915 96.0111 36.1229C96.0108 35.8453 96.1183 35.5778 96.312 35.3739C96.3412 35.3387 96.3773 35.3094 96.4182 35.2878C96.5064 35.2234 96.6052 35.1739 96.7103 35.1415L97.0378 35.064C97.2941 35.0108 97.5547 34.979 97.8166 34.9693H98.4008H98.7725H98.8521H99.1796C100.628 35.0766 102.056 35.3659 103.428 35.8302H103.516V32.6104C103.539 32.4486 103.517 32.2838 103.454 32.1327C103.39 31.9815 103.286 31.8494 103.154 31.7496C103.026 31.6627 102.881 31.6012 102.729 31.5688C101.087 31.0818 99.3705 30.8807 97.6573 30.9748C97.1496 31.0064 96.6443 31.0667 96.1438 31.1555C93.4267 31.6376 91.6654 33.2733 91.3468 35.6322C91.3336 35.8213 91.3336 36.0112 91.3468 36.2003C91.3634 36.9097 91.5554 37.6048 91.9067 38.2267C92.2579 38.8486 92.7581 39.379 93.3648 39.773C93.8416 40.113 94.355 40.4016 94.8959 40.6339C96.3651 41.2796 97.852 41.8908 99.3212 42.5365L99.6221 42.6828H99.6841L99.923 42.8292C100.189 43.0454 100.369 43.3459 100.43 43.678C100.492 44.0101 100.431 44.3526 100.259 44.6456C100.196 44.7475 100.122 44.8427 100.038 44.9297C99.8123 45.1314 99.5335 45.2685 99.2327 45.3258H99.1088C98.5601 45.3976 98.0073 45.435 97.4537 45.4377C95.4432 45.4422 93.4631 44.9599 91.692 44.0344C91.692 44.9986 91.692 45.9456 91.692 46.8926C91.6704 47.3218 91.8024 47.745 92.0654 48.0903C92.3284 48.4356 92.7062 48.6816 93.1346 48.7865H93.2762C94.7976 49.1994 96.3699 49.408 97.9494 49.4064H98.0644C98.6449 49.3712 99.2218 49.2935 99.7903 49.1739C101 48.9989 102.118 48.4456 102.976 47.5975C103.833 46.7494 104.383 45.6528 104.543 44.4735C104.587 44.0441 104.587 43.6115 104.543 43.1822" fill="#01808C"/>
<path d="M47.2352 43.346C47.2309 43.2887 47.2309 43.2312 47.2352 43.1738C47.0476 41.9722 46.4188 40.8773 45.4651 40.0918C44.9043 39.6224 44.275 39.2366 43.5977 38.9469C42.0931 38.3012 40.5796 37.6728 39.0927 36.9841H39.1812C39.0525 36.8931 38.9453 36.7764 38.8668 36.6418C38.7884 36.5072 38.7404 36.3578 38.7261 36.2037C38.7119 36.0496 38.7317 35.8943 38.7842 35.7483C38.8367 35.6022 38.9208 35.4688 39.0307 35.357L39.1369 35.2709C39.2285 35.2067 39.3301 35.1573 39.4379 35.1245L39.7654 35.0471C40.0216 34.9931 40.2822 34.9614 40.5442 34.9524H41.1195H41.5001H41.5709H41.9072C43.3525 35.0609 44.7774 35.3502 46.1466 35.8133H46.244V32.5935C46.2666 32.4316 46.2449 32.2669 46.1812 32.1158C46.1175 31.9646 46.014 31.8325 45.8811 31.7326C45.749 31.6473 45.602 31.5861 45.4474 31.5519C43.8092 31.0648 42.0952 30.8637 40.3849 30.9578C39.8771 30.9884 39.3717 31.0487 38.8714 31.1386C36.1455 31.6207 34.3842 33.2564 34.0656 35.6152C34.0524 35.8044 34.0524 35.9943 34.0656 36.1834C34.0782 36.8926 34.2676 37.5882 34.6175 38.2105C34.9675 38.8329 35.4675 39.3632 36.0746 39.7561C36.5534 40.098 37.0699 40.3868 37.6146 40.617C39.0838 41.2626 40.5707 41.8739 42.0399 42.5196L42.3409 42.6659H42.394C42.478 42.7076 42.558 42.7566 42.6329 42.8123C42.8008 42.9454 42.9357 43.1135 43.0277 43.3043C43.1196 43.4951 43.1662 43.7035 43.164 43.9142C43.1646 44.1649 43.0975 44.4113 42.9693 44.6287C42.9086 44.7324 42.8342 44.8279 42.748 44.9128C42.5233 45.116 42.2441 45.2533 41.9426 45.3088H41.8187C41.2701 45.381 40.7172 45.4183 40.1636 45.4207C38.1534 45.4231 36.1738 44.9409 34.4019 44.0175C34.4019 44.9817 34.4019 45.9287 34.4019 46.8756C34.3799 47.3037 34.5106 47.726 34.7718 48.0711C35.0331 48.4163 35.4089 48.663 35.8357 48.7696H35.9861C37.5046 49.1819 39.0739 49.3905 40.6504 49.3894H40.7743C41.3519 49.3543 41.9259 49.2766 42.4913 49.157C43.7015 48.9834 44.8204 48.4304 45.6782 47.5821C46.5359 46.7338 47.0857 45.6364 47.2441 44.4566C47.2929 44.0274 47.2929 43.5944 47.2441 43.1652" fill="#01808C"/>
<path d="M139.219 31.3803C139.219 31.828 139.219 32.2928 139.219 32.7749C137.31 31.3857 134.923 30.7646 132.556 31.0402C130.188 31.3159 128.02 32.4673 126.501 34.2557C125.078 35.9097 124.289 37.992 124.266 40.1484C124.244 42.3049 124.989 44.4023 126.377 46.0843C127.755 47.799 129.722 48.9727 131.918 49.39C133.188 49.6582 134.504 49.6426 135.767 49.3444C137.031 49.0461 138.208 48.4731 139.21 47.6683C140.19 48.601 141.488 49.1497 142.857 49.2093V31.3803H139.21H139.219ZM133.909 45.5505C133.186 45.5713 132.466 45.4505 131.792 45.1954C131.118 44.9402 130.503 44.5559 129.985 44.0653C129.466 43.5747 129.055 42.9877 128.774 42.3392C128.493 41.6908 128.349 40.994 128.351 40.2905C128.38 38.9159 128.956 37.6059 129.958 36.6358C130.959 35.6658 132.309 35.1114 133.722 35.0891C135.135 35.0668 136.502 35.5784 137.536 36.5163C138.569 37.4542 139.189 38.7454 139.264 40.1183C139.301 40.8224 139.19 41.5265 138.937 42.1872C138.684 42.8479 138.295 43.4513 137.793 43.9602C137.292 44.4691 136.688 44.8727 136.02 45.1462C135.352 45.4197 134.634 45.5573 133.909 45.5505Z" fill="#01808C"/>
<path d="M22.8066 6.07812H21.1377V8.94434H20.5977C20.4383 8.94434 20.2695 8.86615 20.2695 8.67676H20.252V6.07812H18.3818L18.373 9.52148C16.9555 8.6962 15.3337 8.26074 13.6816 8.26074C12.0297 8.26082 10.4087 8.69628 8.99121 9.52148V6.07812H4.62793L13.8682 0L22.8066 6.07812Z" fill="#01808C"/>
<path d="M20.4092 17.7093C20.4092 17.6576 20.4092 17.606 20.4092 17.5543C21.48 17.7698 22.4947 18.1945 23.3918 18.8026C23.1326 21.0148 22.0915 23.0707 20.4465 24.619C18.8015 26.1673 16.6547 27.1118 14.373 27.291V24.3209C16.0378 24.1292 17.5725 23.3504 18.6866 22.1319C19.8006 20.9134 20.4166 19.3399 20.418 17.7093" fill="#FAB44E"/>
<path d="M7.05296 17.7093V17.5543C5.98267 17.7714 4.96829 18.196 4.07031 18.8026C4.32986 21.0162 5.37224 23.0732 7.01905 24.6216C8.66586 26.17 10.8147 27.1137 13.0979 27.291V24.3209C11.4324 24.131 9.89658 23.3527 8.78218 22.1338C7.66777 20.915 7.0524 19.3404 7.05296 17.7093Z" fill="#FAB44E"/>
<path d="M23.384 18.8009C23.1234 21.0134 22.0822 23.0696 20.4376 24.619C18.7931 26.1684 16.647 27.1151 14.3652 27.2979V49.9994H15.1795C15.2534 50.0029 15.3262 49.9805 15.3847 49.9363C15.4431 49.8921 15.4834 49.8289 15.4981 49.7584C17.6931 36.8451 24.3487 31.895 27.4553 29.4501C27.4553 23.5616 25.8356 20.4882 23.384 18.8009Z" fill="#01808C"/>
<path d="M4.07127 18.8009C4.33182 21.0134 5.37309 23.0696 7.01764 24.619C8.66219 26.1684 10.8082 27.1151 13.09 27.2979V49.9994H12.2846C12.2102 50.0048 12.1365 49.9831 12.0776 49.9386C12.0187 49.8941 11.979 49.8298 11.966 49.7584C9.7622 36.8451 3.11541 31.895 0 29.4501C0 23.5616 1.6285 20.4882 4.07127 18.8009Z" fill="#01808C"/>
</svg>
