<svg width="229" height="80" viewBox="0 0 229 80" fill="none" xmlns="http://www.w3.org/2000/svg">
<path d="M191.681 51.8453C189.703 50.6372 187.463 49.8927 185.138 49.6704C182.814 49.4481 180.468 49.7541 178.285 50.5643L176.685 51.0602V40.1648H170.199V78.581H176.685V60.1787C176.576 59.3622 176.784 58.5355 177.269 57.8604C177.753 57.1853 178.479 56.7104 179.305 56.5286C181.802 55.6749 184.525 55.6749 187.022 56.5286C187.816 56.704 188.511 57.1655 188.968 57.8198C189.425 58.4742 189.611 59.2728 189.486 60.0548V76.2394C189.47 76.5548 189.522 76.87 189.64 77.1643C189.757 77.4586 189.938 77.7252 190.17 77.9466C190.401 78.1679 190.678 78.3389 190.983 78.4482C191.287 78.5576 191.612 78.6028 191.936 78.581H196.015V59.2971C196.048 57.8061 195.671 56.3335 194.925 55.0309C194.178 53.7284 193.088 52.643 191.766 51.8866" fill="white"/>
<path fill-rule="evenodd" clip-rule="evenodd" d="M115.851 42.9915C115.868 43.4741 115.786 43.9551 115.609 44.4063C115.432 44.8575 115.164 45.2697 114.821 45.6188C114.478 45.9678 114.067 46.2467 113.612 46.4389C113.156 46.6311 112.666 46.7328 112.169 46.738C111.662 46.7565 111.155 46.6756 110.68 46.5001C110.205 46.3246 109.771 46.058 109.404 45.7163C109.037 45.3746 108.744 44.9647 108.543 44.5108C108.342 44.0569 108.236 43.5684 108.233 43.0741C108.221 42.0914 108.612 41.1446 109.318 40.442C110.025 39.7394 110.989 39.3384 111.999 39.3275C113.01 39.3165 113.983 39.6965 114.705 40.3836C115.428 41.0707 115.84 42.0088 115.851 42.9915Z" fill="white"/>
<path d="M145.319 50.7145H139.825C139.144 50.6983 138.468 50.8225 137.841 51.0789C137.214 51.3353 136.649 51.7181 136.185 52.2022C136.185 52.2022 126.952 64.5989 126.981 64.6816L136.185 77.0784C136.641 77.5736 137.203 77.9649 137.832 78.2244C138.461 78.4839 139.142 78.6052 139.825 78.5797H145.319L134.868 64.6127L145.319 50.7145Z" fill="white"/>
<path d="M126.926 40.1648H120.426V78.581H126.926V40.151V40.1648Z" fill="white"/>
<path d="M108.784 76.2538C108.768 76.5667 108.819 76.8795 108.935 77.1718C109.051 77.464 109.229 77.7292 109.458 77.9501C109.686 78.171 109.96 78.3427 110.261 78.4539C110.562 78.565 110.884 78.6132 111.206 78.5954H115.27V50.2895H108.784V76.2538Z" fill="white"/>
<path d="M100.035 51.8453C98.0565 50.6372 95.8166 49.8927 93.4919 49.6704C91.1671 49.4481 88.8211 49.7541 86.6387 50.5643L85.0385 51.0602V40.1648H78.5527V78.581H85.0526V60.1787C84.9397 59.3636 85.1445 58.537 85.6267 57.8614C86.109 57.1859 86.8337 56.7105 87.6582 56.5286C90.1559 55.6749 92.8782 55.6749 95.376 56.5286C96.1691 56.704 96.8644 57.1655 97.3217 57.8198C97.7789 58.4742 97.9641 59.2728 97.84 60.0548V76.2394C97.8254 76.5524 97.8788 76.8649 97.9966 77.1565C98.1144 77.4481 98.2941 77.7123 98.5239 77.9319C98.7537 78.1515 99.0284 78.3215 99.3302 78.431C99.632 78.5405 99.9542 78.5869 100.276 78.5673H104.34V59.2834C104.371 57.7926 103.995 56.3205 103.248 55.0182C102.501 53.7159 101.412 52.6303 100.092 51.8729" fill="white"/>
<path d="M167.24 69.353V69.0775C166.942 67.154 165.936 65.4014 164.408 64.1463C163.508 63.3983 162.502 62.7812 161.42 62.3143C159.013 61.2812 156.577 60.2758 154.198 59.1738H154.354C154.128 59.0171 153.943 58.8106 153.815 58.5712C153.687 58.3318 153.619 58.0663 153.617 57.7964C153.617 57.3522 153.789 56.9243 154.099 56.5981V56.5981C154.146 56.5417 154.203 56.4949 154.269 56.4603V56.4603C154.41 56.3573 154.568 56.2781 154.736 56.2261L155.26 56.1022C155.67 56.017 156.087 55.9663 156.506 55.9506H157.441H158.036H158.163H158.687C161.004 56.1223 163.289 56.5853 165.484 57.3281H165.626V52.1765C165.662 51.9176 165.627 51.6539 165.525 51.4121C165.423 51.1703 165.258 50.9589 165.045 50.7991C164.84 50.6601 164.609 50.5618 164.366 50.5098C161.739 49.7306 158.992 49.409 156.251 49.5595C155.439 49.61 154.63 49.7065 153.83 49.8487C149.482 50.62 146.664 53.2371 146.155 57.0113C146.133 57.314 146.133 57.6177 146.155 57.9203C146.155 57.9203 146.155 57.9203 146.155 57.9203C146.181 59.0554 146.488 60.1675 147.05 61.1625C147.612 62.1576 148.413 63.0062 149.383 63.6367C150.146 64.1806 150.968 64.6424 151.833 65.0141C154.184 66.0471 156.563 67.0251 158.914 68.0582L159.395 68.2923H159.494L159.876 68.5265C160.303 68.8725 160.59 69.3532 160.688 69.8846C160.787 70.4159 160.69 70.964 160.415 71.4328C160.313 71.5958 160.194 71.7482 160.061 71.8874C159.699 72.21 159.253 72.4293 158.772 72.521H158.574C157.696 72.636 156.811 72.6958 155.926 72.7001C152.709 72.7073 149.541 71.9357 146.707 70.4549C146.707 71.9976 146.707 73.5128 146.707 75.0279C146.672 75.7147 146.883 76.3918 147.304 76.9443C147.725 77.4967 148.33 77.8903 149.015 78.0582H149.242C151.676 78.7188 154.191 79.0525 156.719 79.05H156.903C157.831 78.9938 158.755 78.8694 159.664 78.678C161.599 78.3981 163.388 77.5128 164.76 76.1558C166.133 74.7989 167.013 73.0443 167.268 71.1574C167.339 70.4704 167.339 69.7782 167.268 69.0913" fill="white"/>
<path d="M75.5776 69.3531C75.5706 69.2614 75.5706 69.1693 75.5776 69.0776C75.2773 67.155 74.2712 65.4031 72.7454 64.1465C71.848 63.3954 70.8411 62.778 69.7574 62.3145C67.3501 61.2814 64.9285 60.2759 62.5495 59.174H62.6911C62.4852 59.0284 62.3137 58.8417 62.1881 58.6264C62.0625 58.411 61.9857 58.172 61.9629 57.9255C61.9401 57.6789 61.9718 57.4304 62.0559 57.1967C62.14 56.963 62.2745 56.7496 62.4504 56.5707V56.5707L62.6203 56.4329C62.7668 56.3303 62.9294 56.2512 63.1018 56.1987L63.6257 56.0748C64.0357 55.9885 64.4527 55.9378 64.8719 55.9233H65.7924H66.4013H66.5146H67.0527C69.3652 56.0969 71.645 56.5599 73.8358 57.3007H73.9915V52.1491C74.0277 51.8901 73.9931 51.6265 73.8911 51.3847C73.7892 51.1429 73.6236 50.9314 73.4109 50.7717C73.1995 50.6352 72.9644 50.5373 72.7171 50.4825C70.0958 49.7032 67.3535 49.3815 64.617 49.5321C63.8046 49.5809 62.9959 49.6774 62.1955 49.8213C57.8339 50.5926 55.0159 53.2097 54.5061 56.9839C54.485 57.2865 54.485 57.5903 54.5061 57.893C54.5262 59.0277 54.8293 60.1407 55.3892 61.1364C55.9491 62.1321 56.7492 62.9806 57.7206 63.6092C58.4866 64.1563 59.313 64.6183 60.1846 64.9867C62.5353 66.0197 64.9144 66.9977 67.2651 68.0308L67.7465 68.2649H67.8315C67.9659 68.3317 68.0939 68.4101 68.2139 68.4991C68.4825 68.7121 68.6984 68.9812 68.8454 69.2864C68.9925 69.5916 69.0671 69.9251 69.0635 70.2622C69.0646 70.6633 68.9571 71.0576 68.752 71.4055C68.6549 71.5714 68.5359 71.7241 68.398 71.86C68.0384 72.185 67.5917 72.4047 67.1093 72.4936H66.9111C66.0333 72.609 65.1487 72.6688 64.263 72.6727C61.0466 72.6764 57.8793 71.905 55.0442 70.4275C55.0442 71.9702 55.0442 73.4854 55.0442 75.0005C55.009 75.6854 55.2181 76.3611 55.6361 76.9133C56.0541 77.4655 56.6554 77.8603 57.3383 78.0309H57.579C60.0085 78.6906 62.5194 79.0242 65.0418 79.0226H65.2401C66.1642 78.9663 67.0825 78.8421 67.9873 78.6507C69.9236 78.3729 71.7138 77.4882 73.0863 76.1309C74.4587 74.7735 75.3384 73.0177 75.5917 71.13C75.6698 70.4434 75.6698 69.7505 75.5917 69.0639" fill="white"/>
<path d="M222.752 50.2083C222.752 50.9245 222.752 51.6683 222.752 52.4397C219.696 50.217 215.879 49.2231 212.09 49.6642C208.302 50.1053 204.833 51.9475 202.403 54.8089C200.127 57.4554 198.863 60.787 198.827 64.2373C198.791 67.6876 199.984 71.0436 202.205 73.7346C204.409 76.4782 207.556 78.3562 211.069 79.0239C213.102 79.453 215.208 79.428 217.229 78.9508C219.25 78.4736 221.134 77.5567 222.738 76.269C224.304 77.7614 226.382 78.6393 228.572 78.7347V50.2083H222.738H222.752ZM214.256 72.8806C213.099 72.9139 211.947 72.7206 210.868 72.3124C209.79 71.9042 208.806 71.2893 207.977 70.5043C207.147 69.7193 206.488 68.7801 206.039 67.7426C205.59 66.705 205.36 65.5903 205.362 64.4645C205.409 62.2652 206.331 60.1692 207.933 58.6172C209.536 57.0651 211.695 56.178 213.956 56.1424C216.217 56.1067 218.405 56.9252 220.058 58.4259C221.712 59.9266 222.703 61.9925 222.823 64.1891C222.883 65.3156 222.705 66.4422 222.301 67.4993C221.896 68.5565 221.273 69.5219 220.471 70.3361C219.668 71.1504 218.703 71.7962 217.634 72.2338C216.565 72.6714 215.415 72.8915 214.256 72.8806" fill="white"/>
<path d="M36.4932 9.72461H33.8174V14.3105H32.9531C32.6983 14.3105 32.4297 14.1867 32.4297 13.8838H32.4014V9.72461H29.4121L29.3984 15.2344C27.1303 13.9139 24.5359 13.2168 21.8926 13.2168C19.2494 13.2169 16.6557 13.914 14.3877 15.2344V9.72461H7.40625L22.1904 0L36.4932 9.72461Z" fill="white"/>
<path d="M32.6558 28.3347C32.6558 28.2521 32.6558 28.1695 32.6558 28.0868C34.3691 28.4316 35.9927 29.1111 37.4281 30.0841C37.0133 33.6236 35.3476 36.9131 32.7155 39.3903C30.0835 41.8676 26.6486 43.3787 22.998 43.6654V38.9133C25.6617 38.6066 28.1172 37.3605 29.8997 35.4109C31.6821 33.4614 32.6678 30.9437 32.67 28.3347" fill="white" fill-opacity="0.5"/>
<path d="M11.2859 28.3347V28.0868C9.57344 28.4342 7.95043 29.1134 6.51367 30.0841C6.92894 33.6258 8.59675 36.9169 11.2317 39.3944C13.8666 41.8719 17.3047 43.3817 20.9579 43.6654V38.9133C18.293 38.6094 15.8357 37.3642 14.0527 35.414C12.2696 33.4638 11.285 30.9446 11.2859 28.3347" fill="white" fill-opacity="0.5"/>
<path d="M37.4124 30.0811C36.9956 33.6211 35.3295 36.9109 32.6982 39.39C30.067 41.869 26.6333 43.3838 22.9824 43.6762V79.9987H24.2852C24.4035 80.0043 24.52 79.9685 24.6136 79.8977C24.7071 79.827 24.7715 79.7259 24.795 79.613V79.613C28.3069 58.9517 38.956 51.0316 43.9265 47.1197C43.9265 37.6982 41.335 32.7808 37.4124 30.0811Z" fill="white"/>
<path d="M6.51403 30.0811C6.93091 33.6211 8.59695 36.9109 11.2282 39.39C13.8595 41.869 17.2932 43.3838 20.9441 43.6762V79.9987H19.6554C19.5364 80.0073 19.4184 79.9726 19.3242 79.9013C19.23 79.8301 19.1663 79.7273 19.1456 79.613C15.6195 58.9517 4.98466 51.0316 0 47.1197C0 37.6982 2.6056 32.7808 6.51403 30.0811" fill="white"/>
</svg>
