<svg width="178" height="40" viewBox="0 0 178 40" fill="none" xmlns="http://www.w3.org/2000/svg">
<path d="M47.9994 4.1599C47.9674 4.38391 47.6794 4.38391 47.3914 4.1599C47.2314 4.0319 47.1034 3.8399 47.0074 3.6799L37.5034 20.6399C39.3274 20.5439 40.2874 20.4799 40.3194 20.4799C40.5114 20.4479 40.8634 20.7039 41.0554 20.9919C41.2474 21.3119 41.2154 21.5679 40.9914 21.5999C40.9914 21.5999 39.5194 21.6959 36.8314 21.8239L29.0874 35.6159C28.4794 36.8639 27.7754 38.1119 27.0074 39.3599C26.9114 39.5199 26.6234 39.4239 26.3354 39.1999C26.0794 38.9119 25.9194 38.5919 26.0154 38.4319C26.7194 37.1839 27.3914 35.9359 28.0954 34.6879C30.3994 30.1119 31.5514 25.7919 31.5834 22.0479C28.5434 22.1759 24.8634 22.3039 20.6394 22.3679L16.5754 28.8319C16.4794 28.9599 16.1594 28.8959 15.9034 28.6399C15.6154 28.3519 15.4874 28.0319 15.5834 27.8719L19.0394 22.3999C16.4794 22.4639 13.7594 22.4959 10.8474 22.4959C5.79141 22.5279 2.62341 21.3439 1.15141 19.6799C0.319406 18.7519 -0.000593752 17.7279 0.127406 16.7039C0.255406 15.8079 0.703406 14.8479 1.50341 13.9839C3.83941 11.3599 9.02341 9.0239 16.1594 8.7679C20.3194 8.63991 23.7114 9.40791 26.3034 10.8799L30.6554 4.0319C30.7514 3.8719 31.0394 3.96791 31.3274 4.22391C31.5834 4.4799 31.7434 4.83191 31.6474 4.99191L27.4234 11.6159C28.9914 12.7359 30.1754 14.1439 31.0714 15.8079C31.8714 17.3119 32.3514 19.0399 32.5434 20.8959C33.8234 20.8319 34.9434 20.7679 35.9354 20.7359L47.4554 0.159904C47.5194 -9.53674e-05 47.7754 -9.53674e-05 48.0314 0.223904C48.3194 0.415905 48.5434 0.767906 48.5114 0.991905L47.9994 4.1599ZM27.0394 12.2239L21.3434 21.2479C25.3114 21.1519 28.7354 21.0239 31.5514 20.9279C31.4234 18.9759 30.9754 17.2159 30.1754 15.7119C29.4394 14.3359 28.4154 13.1519 27.0394 12.2239ZM19.7434 21.2799L25.8874 11.5519C23.5834 10.3679 20.5754 9.7599 16.8314 9.88791C9.82341 10.1439 4.73541 12.4159 2.46341 14.9759C1.72741 15.8079 1.27941 16.6719 1.18341 17.4719C1.08741 18.1439 1.24741 18.7839 1.66341 19.2639C2.78341 20.5439 5.50341 21.4079 10.2074 21.4079C13.6314 21.3759 16.8314 21.3439 19.7434 21.2799ZM32.0314 27.6799L35.2634 21.9199C34.4634 21.9519 33.5674 21.9839 32.6074 22.0159C32.6714 23.7759 32.4794 25.6959 32.0314 27.6799ZM47.1594 21.1199C47.3194 20.9919 47.6394 21.1199 47.8954 21.4079C48.1514 21.6959 48.2474 22.0159 48.0874 22.1439C47.3834 22.7519 46.2314 24.1279 45.5274 25.4719C45.0794 26.3679 45.1114 26.8799 45.4314 27.0399C46.7434 27.2319 50.2954 23.7759 50.2954 23.7439C50.4234 23.6159 50.6474 23.3599 50.9034 23.6479C51.1914 23.9359 51.0634 24.0319 50.9354 24.1599C50.9034 24.1599 45.5914 29.9199 44.2154 27.5199C43.7674 26.7199 43.9914 25.6319 44.5354 24.5439C45.2394 23.1679 46.4234 21.7279 47.1594 21.1199ZM49.1434 20.1919C49.0154 20.3519 48.6954 20.2239 48.4394 19.9679C48.1834 19.6799 48.0554 19.3599 48.1834 19.1999L49.9754 17.1519C50.1034 16.9919 50.3914 17.1199 50.6794 17.3759C50.9354 17.6639 51.0314 17.9839 50.9354 18.1439L49.1434 20.1919ZM61.2727 9.27991C61.3687 9.15191 61.6887 9.2159 61.9447 9.5039C62.2007 9.7599 62.3287 10.1119 62.2327 10.2399C62.2327 10.2719 59.8967 13.5039 57.4007 17.2479H65.5607C65.7847 17.2479 66.1367 17.5039 66.2967 17.7919C66.4887 18.1119 66.4567 18.3679 66.2327 18.3679H56.6647C55.9927 19.3919 55.3207 20.4479 54.6807 21.4719V21.5039C54.6807 21.6319 54.6167 21.6959 54.5527 21.6959C52.6007 24.8639 51.5447 26.6879 51.8967 27.3279C52.4727 28.4159 58.9687 23.2319 58.9687 23.1999C59.0967 23.1039 59.2887 23.0399 59.5447 23.3279C59.8007 23.6159 59.6087 23.7759 59.4807 23.8719C59.4487 23.9039 52.1847 31.0719 50.6167 28.1919C50.1367 27.2959 51.6087 24.2239 53.6567 20.8319C53.6247 20.8319 53.8487 20.4799 53.8487 20.4799C53.9127 18.0479 45.7207 18.3679 45.7207 18.3679C45.4967 18.3679 45.1447 18.1119 44.9847 17.7919C44.7927 17.5039 44.8247 17.2479 45.0487 17.2479H55.8647C58.5527 13.0559 61.2407 9.3119 61.2727 9.27991ZM54.2007 19.9039C54.5207 19.3919 54.8407 18.8799 55.1607 18.3679L51.1607 18.2079C52.1207 18.5919 53.6887 19.2319 54.2007 19.9039ZM62.0104 23.4239C62.4584 23.2959 62.9384 23.1039 63.4504 22.8799C64.1224 22.5279 64.6984 21.8559 65.0504 21.2479C65.1144 21.1199 65.1464 21.0239 65.2104 20.8959C64.8584 21.0559 64.4424 21.3119 63.9624 21.6639C63.3224 22.1439 62.5864 22.7519 62.0104 23.4239ZM64.2824 23.9359C62.7784 24.7039 61.0824 24.8959 60.9864 24.8959C58.8104 29.5679 67.4504 25.5999 68.4424 23.8079C68.5384 23.6159 68.8584 23.3919 69.1464 23.6479C69.4024 23.9039 69.4024 24.0319 69.3064 24.2239C68.4104 25.7919 63.4184 29.2479 61.2104 27.9999C60.1224 27.3919 59.4504 26.1119 59.7064 24.8639C59.8664 24.0639 60.3464 23.2319 60.9864 22.4959C61.6264 21.7919 62.3624 21.1199 63.0664 20.6079C63.9944 19.9679 64.8584 19.5839 65.2104 19.6479C65.4984 19.7119 65.7544 19.8719 65.9784 20.1279C66.2984 20.4799 66.4264 20.8959 66.3624 21.2799C66.3304 21.5679 66.2024 21.8559 66.0424 22.1759C65.6904 22.8479 65.0504 23.5519 64.2824 23.9359ZM70.5292 24.7039C70.4012 24.8319 70.0172 25.0239 69.7612 24.7679C69.5052 24.4799 70.1772 23.9039 70.3052 23.7759L72.7052 20.8639C73.1212 20.4159 73.4412 20.1599 73.4412 20.1599C73.5692 20.0319 73.8892 20.1599 74.1132 20.4479C74.3692 20.7039 74.4972 21.0559 74.3692 21.1839L73.6012 21.9199C72.9292 22.6879 72.0332 24.0639 72.3852 25.5359C72.5772 26.4639 72.4812 27.1999 72.2252 27.7439C72.0652 28.0319 71.8412 28.2559 71.6172 28.4479C71.3932 28.6079 71.1372 28.7359 70.8812 28.7999C70.4332 28.8959 69.9852 28.8319 69.6332 28.6399C67.8092 27.7119 68.8012 25.9199 68.8012 25.8879C68.8972 25.7279 69.1852 25.7919 69.4732 26.0479C69.7612 26.3039 69.8892 26.6559 69.8252 26.8159C69.8252 26.8479 69.3772 27.6479 69.4412 27.6799C69.5692 27.7439 69.8252 27.7439 70.0812 27.6799C70.3052 27.6479 70.5292 27.5519 70.7212 27.3919C70.9132 27.2639 71.1052 27.0399 71.2012 26.8159C71.4252 26.3679 71.5212 25.7919 71.3612 25.0559C71.3612 24.6399 71.0732 24.6079 71.8412 23.1999L70.5292 24.7039ZM84.5822 11.7119C84.6782 11.5519 84.9982 11.6479 85.2542 11.9039C85.5422 12.1599 85.6702 12.5119 85.5742 12.6719L78.5662 24.0319C80.3262 22.6879 82.1182 21.8879 82.3102 23.9999C82.3422 24.2879 82.3742 26.3679 82.3742 26.3679C82.5022 26.5279 83.5262 26.2719 86.3422 23.6479C86.4702 23.5199 86.6622 23.2319 86.9182 23.4879C87.1742 23.7759 87.1742 23.9999 87.0462 24.1279C83.8782 27.0719 82.3422 27.8079 81.6062 27.0399C80.8382 26.2079 81.0942 24.7039 80.9982 23.5839C80.9022 22.7839 75.8142 28.5119 75.7822 28.5439C75.6862 28.6719 75.3982 28.5759 75.1422 28.3199C74.8542 28.0639 74.7262 27.7119 74.8222 27.5519L84.5822 11.7119ZM137.366 7.4239C137.622 7.48791 137.942 7.77591 138.07 8.09591C138.198 8.38391 138.102 8.5759 137.846 8.54391C135.67 8.06391 131.51 7.7119 126.806 8.22391C128.47 9.2159 129.718 10.5599 130.422 12.2559C131.542 15.0719 131.382 19.1039 128.246 23.9679C124.374 29.9839 117.174 33.3759 111.574 34.0159C109.686 34.2399 107.926 34.1439 106.454 33.6639C104.822 33.1519 103.478 32.1919 102.614 30.7839C101.494 28.8959 101.398 26.2079 102.902 22.7519C105.718 16.0959 110.55 12.1279 115.766 9.82391C118.102 8.7679 120.502 8.06391 122.87 7.61591C121.494 7.2959 119.99 7.1359 118.422 7.07191C109.302 6.8159 97.5899 10.6239 92.0219 17.2479C91.8939 17.3759 91.5739 17.2799 91.3179 16.9919C91.0619 16.7359 90.8059 15.9679 90.9339 15.8079C96.5659 9.11991 108.086 5.43991 117.27 5.72791C119.894 5.8239 122.838 6.46391 124.854 7.2639C130.166 6.5279 134.934 6.9439 137.366 7.4239ZM125.398 8.4159C122.55 8.83191 119.51 9.59991 116.598 10.8799C111.478 13.1839 106.71 17.0879 103.894 23.6479C102.518 26.8799 102.518 29.2159 103.446 30.7519C103.958 31.6159 104.886 32.2239 106.07 32.6079C107.414 33.0239 109.078 33.1199 110.87 32.9279C116.374 32.2559 123.062 28.7359 126.87 22.8159C129.91 18.0799 130.486 14.5279 129.462 11.9999C128.822 10.4959 127.51 9.3439 125.718 8.54391C125.622 8.4799 125.526 8.4479 125.398 8.4159ZM139.714 11.8399C139.81 11.6799 140.098 11.7759 140.386 12.0319C140.642 12.2879 140.802 12.6399 140.706 12.7999L133.538 24.3839C134.85 23.1679 136.194 22.0479 137.218 21.5999C137.794 21.3439 138.274 21.3759 138.658 21.6639L138.69 21.6959C139.17 22.0799 139.394 22.5919 139.394 23.1679C139.426 23.5519 139.33 23.9999 139.202 24.4799C138.69 26.1439 137.378 28.2239 135.97 28.5439C134.018 29.0239 133.25 27.9359 132.93 26.8799C131.394 28.4159 130.242 29.7599 130.21 29.7599C130.114 29.8879 129.826 29.7919 129.57 29.5359C129.282 29.2799 129.154 28.9279 129.25 28.7679L139.714 11.8399ZM138.082 22.6559C136.898 23.1999 135.266 24.6079 133.762 26.0479C133.762 26.3999 133.858 27.7759 135.202 27.4559C136.45 27.1359 137.698 25.1839 138.146 23.6159C138.274 23.2319 138.338 22.8479 138.37 22.5279C138.274 22.5599 138.178 22.6239 138.082 22.6559ZM138.562 22.4639C138.562 22.4639 138.53 22.4639 138.498 22.4959C138.562 22.4959 138.594 22.5279 138.562 22.4959V22.4639ZM144.093 23.4239C144.541 23.2959 145.021 23.1039 145.533 22.8799C146.205 22.5279 146.781 21.8559 147.133 21.2479C147.197 21.1199 147.229 21.0239 147.293 20.8959C146.941 21.0559 146.525 21.3119 146.045 21.6639C145.405 22.1439 144.669 22.7519 144.093 23.4239ZM146.365 23.9359C144.861 24.7039 143.165 24.8959 143.069 24.8959C140.893 29.5679 149.533 25.5999 150.525 23.8079C150.621 23.6159 150.941 23.3919 151.229 23.6479C151.485 23.9039 151.485 24.0319 151.389 24.2239C150.493 25.7919 145.501 29.2479 143.293 27.9999C142.205 27.3919 141.533 26.1119 141.789 24.8639C141.949 24.0639 142.429 23.2319 143.069 22.4959C143.709 21.7919 144.445 21.1199 145.149 20.6079C146.077 19.9679 146.941 19.5839 147.293 19.6479C147.581 19.7119 147.837 19.8719 148.061 20.1279C148.381 20.4799 148.509 20.8959 148.445 21.2799C148.413 21.5679 148.285 21.8559 148.125 22.1759C147.773 22.8479 147.133 23.5519 146.365 23.9359ZM154.468 20.2239C154.564 20.0639 154.884 20.1599 155.14 20.4159C155.428 20.6719 155.556 21.0239 155.46 21.1839L154.276 23.0719C155.396 22.5279 156.932 22.0159 157.572 22.8159C157.86 23.1359 157.764 23.8719 158.18 23.9039C158.788 23.9359 159.684 23.8079 160.548 23.5519C160.74 23.4879 160.932 23.3279 161.124 23.6159C161.348 23.9359 161.22 24.0319 161.028 24.0639C160.1 24.3519 158.564 24.6719 157.892 24.6079C157.06 24.5439 156.804 24.3199 156.1 23.4879C155.62 22.9119 152.772 25.4399 152.772 25.4399C152.708 25.4719 151.044 28.2879 150.884 28.5759C150.788 28.7359 150.468 28.6399 150.212 28.3839C149.924 28.1279 149.796 27.7759 149.892 27.6159L154.468 20.2239ZM163.649 22.0479C163.777 21.9519 164.097 22.0799 164.353 22.3679C164.609 22.6559 164.673 22.9759 164.545 23.1039C164.449 23.1679 164.353 23.2319 164.289 23.2959C163.617 23.9039 163.073 24.8959 162.721 25.8879C162.465 26.7199 162.337 27.4879 162.497 27.8079C162.657 27.8719 162.849 27.8719 163.105 27.8079C163.393 27.7119 163.745 27.5199 164.065 27.1999C164.513 26.8159 164.929 26.2399 165.313 25.5039C165.537 25.0879 165.697 24.6399 165.825 24.1919C165.249 23.7119 164.833 23.1359 164.577 22.5599C164.321 21.9839 164.225 21.4079 164.257 20.9919C164.321 20.5439 164.513 20.2239 164.897 20.1599C165.185 20.1279 165.441 20.1919 165.697 20.3199C166.113 20.5439 166.465 20.9279 166.689 21.4079C166.881 21.7599 166.977 22.1439 167.041 22.5599C167.105 22.9759 167.105 23.4559 167.041 23.9359C167.745 24.0639 168.801 24.1919 169.921 23.5519C170.081 23.4559 170.241 23.3279 170.497 23.6159C170.721 23.9039 170.689 24.1279 170.529 24.2239C169.025 25.0559 167.905 25.1839 166.913 24.8319C166.785 25.3759 166.593 25.9519 166.305 26.4319C165.921 27.1679 165.473 27.8079 164.993 28.2239C164.609 28.5439 164.257 28.7999 163.905 28.8959C163.489 29.0239 163.073 28.9919 162.657 28.7679C162.433 28.6399 162.209 28.4799 162.017 28.2559C161.953 28.1919 161.889 28.1279 161.825 28.0639C161.313 27.3279 161.345 26.1439 161.697 25.0239C162.049 23.9679 162.657 22.9119 163.361 22.2719C163.457 22.2079 163.553 22.1119 163.649 22.0479ZM165.985 23.4239C166.049 22.9119 166.049 22.3999 165.985 21.9839C165.953 21.6959 165.889 21.4399 165.825 21.2799C165.793 21.2799 165.857 21.2799 165.857 21.2799C165.825 21.2479 165.729 21.2479 165.633 21.2799C165.441 21.2799 165.345 21.4719 165.313 21.7599C165.281 22.0479 165.345 22.3999 165.505 22.7519C165.601 23.0079 165.761 23.2319 165.985 23.4239ZM173.936 21.1199C174.096 20.9919 174.416 21.1199 174.672 21.4079C174.928 21.6959 175.024 22.0159 174.864 22.1439C174.16 22.7519 173.008 24.1279 172.304 25.4719C171.856 26.3679 171.888 26.8799 172.208 27.0399C173.52 27.2319 177.072 23.7759 177.072 23.7439C177.2 23.6159 177.424 23.3599 177.68 23.6479C177.968 23.9359 177.84 24.0319 177.712 24.1599C177.68 24.1599 172.368 29.9199 170.992 27.5199C170.544 26.7199 170.768 25.6319 171.312 24.5439C172.016 23.1679 173.2 21.7279 173.936 21.1199ZM175.92 20.1919C175.792 20.3519 175.472 20.2239 175.216 19.9679C174.96 19.6799 174.832 19.3599 174.96 19.1999L176.752 17.1519C176.88 16.9919 177.168 17.1199 177.456 17.3759C177.712 17.6639 177.808 17.9839 177.712 18.1439L175.92 20.1919Z" fill="white"/>
</svg>
