<svg width="12" height="12" viewBox="0 0 12 12" fill="none" xmlns="http://www.w3.org/2000/svg">
<path d="M1.85059 7.10207L5.60059 3.35207C5.65284 3.29963 5.71494 3.25802 5.78331 3.22963C5.85169 3.20124 5.92499 3.18663 5.99902 3.18663C6.07306 3.18663 6.14636 3.20124 6.21473 3.22963C6.28311 3.25802 6.3452 3.29963 6.39746 3.35207L10.1475 7.10207C10.2531 7.20774 10.3125 7.35107 10.3125 7.50051C10.3125 7.64995 10.2531 7.79327 10.1475 7.89895C10.0418 8.00462 9.89847 8.06398 9.74902 8.06398C9.59958 8.06398 9.45626 8.00462 9.35059 7.89895L5.99856 4.54691L2.64652 7.89941C2.54085 8.00509 2.39753 8.06445 2.24809 8.06445C2.09864 8.06445 1.95532 8.00509 1.84965 7.89941C1.74398 7.79374 1.68461 7.65042 1.68461 7.50098C1.68461 7.35153 1.74398 7.20821 1.84965 7.10254L1.85059 7.10207Z" fill="#45474E"/>
</svg>
