<svg width="43" height="40" viewBox="0 0 43 40" fill="none" xmlns="http://www.w3.org/2000/svg">
<path d="M41.4783 0.819336C41.4606 1.57088 41.4123 2.32171 41.3298 3.07082L41.3309 3.07196C41.0364 5.85217 40.3173 8.63395 39.1739 11.415C38.638 12.7194 38.009 14.0239 37.2867 15.3287C34.7385 19.9318 31.2987 23.9734 27.2278 27.2752C24.6961 29.3287 21.6894 30.6985 18.5072 31.2449L11.0527 23.7904C11.5991 20.6082 12.9689 17.6016 15.0224 15.0699C18.3243 10.9989 22.3657 7.55914 26.9689 5.01095C28.2737 4.28867 29.5782 3.65965 30.8826 3.12376C33.6637 1.98023 36.4456 1.26125 39.2268 0.967833C39.9759 0.885476 40.7267 0.837127 41.4783 0.819336Z" stroke="black" stroke-width="1.6" stroke-miterlimit="10" stroke-linecap="round"/>
<path d="M41.33 3.07075L41.3311 3.0719C41.0366 5.8521 40.3175 8.63389 39.1741 11.415C37.6203 10.7135 35.9218 9.52389 34.3478 7.94992C32.7739 6.37595 31.5843 4.67729 30.8828 3.1237C33.6639 1.98017 36.4458 1.26119 39.227 0.967773" stroke="black" stroke-width="1.6" stroke-miterlimit="10" stroke-linecap="round"/>
<path d="M15.1912 32.4211C15.1912 32.4211 12.4194 37.609 5.8172 36.4793C4.68744 29.8772 9.87539 27.1055 9.87539 27.1055" stroke="black" stroke-width="1.6" stroke-miterlimit="10" stroke-linecap="round"/>
<path d="M35.3419 18.4814C35.4812 23.8139 34.7882 28.7981 33.0752 33.3555C33.0515 33.5112 32.8572 33.569 32.7522 33.4517L28.8516 25.8866" stroke="black" stroke-width="1.6" stroke-miterlimit="10" stroke-linecap="round"/>
<path d="M23.8137 6.95488C18.4813 6.81556 13.4971 7.50857 8.93964 9.22157C8.78397 9.24525 8.72614 9.43952 8.84351 9.54455L16.4088 13.4452" stroke="black" stroke-width="1.6" stroke-miterlimit="10" stroke-linecap="round"/>
<path d="M25.5986 35.7666L22.4648 38.9003" stroke="black" stroke-width="1.6" stroke-miterlimit="10" stroke-linecap="round"/>
<path d="M3.93453 21.166L0.800781 24.2999" stroke="black" stroke-width="1.6" stroke-miterlimit="10" stroke-linecap="round"/>
<path d="M30.9633 17.0053C29.3968 18.5719 26.8568 18.5719 25.2901 17.0053C23.7236 15.4386 23.7236 12.8988 25.2901 11.3321C26.8568 9.7656 29.3967 9.7656 30.9633 11.3321C32.53 12.8986 32.53 15.4386 30.9633 17.0053Z" stroke="black" stroke-width="1.6" stroke-miterlimit="10" stroke-linecap="round"/>
</svg>
