<svg width="40" height="40" viewBox="0 0 40 40" fill="none" xmlns="http://www.w3.org/2000/svg">
<path d="M38.356 19.6203C38.3029 19.4984 37.0029 16.6156 34.0998 13.7125C31.406 11.0219 26.7779 7.8125 19.9998 7.8125C13.2216 7.8125 8.59352 11.0219 5.89977 13.7125C2.99665 16.6156 1.69665 19.4937 1.64352 19.6203C1.5901 19.7403 1.5625 19.8702 1.5625 20.0016C1.5625 20.1329 1.5901 20.2628 1.64352 20.3828C1.69665 20.5031 2.99665 23.3859 5.89977 26.2891C8.59352 28.9797 13.2216 32.1875 19.9998 32.1875C26.7779 32.1875 31.406 28.9797 34.0998 26.2891C37.0029 23.3859 38.3029 20.5078 38.356 20.3828C38.4094 20.2628 38.437 20.1329 38.437 20.0016C38.437 19.8702 38.4094 19.7403 38.356 19.6203ZM19.9998 30.3125C15.0966 30.3125 10.8154 28.5281 7.27321 25.0109C5.78833 23.5352 4.5318 21.8463 3.54508 20C4.53152 18.1539 5.78808 16.4655 7.27321 14.9906C10.8154 11.4719 15.0966 9.6875 19.9998 9.6875C24.9029 9.6875 29.1841 11.4719 32.7263 14.9906C34.2115 16.4655 35.468 18.1539 36.4545 20C35.4591 21.9078 30.4685 30.3125 19.9998 30.3125ZM19.9998 12.8125C18.5782 12.8125 17.1886 13.234 16.0066 14.0238C14.8246 14.8136 13.9034 15.9361 13.3594 17.2495C12.8154 18.5628 12.673 20.008 12.9504 21.4022C13.2277 22.7964 13.9123 24.0771 14.9174 25.0823C15.9226 26.0875 17.2033 26.7721 18.5976 27.0494C19.9918 27.3267 21.437 27.1844 22.7503 26.6404C24.0637 26.0964 25.1862 25.1751 25.976 23.9932C26.7657 22.8112 27.1873 21.4216 27.1873 20C27.1848 18.0945 26.4267 16.2678 25.0794 14.9204C23.732 13.573 21.9053 12.815 19.9998 12.8125ZM19.9998 25.3125C18.9491 25.3125 17.9219 25.0009 17.0483 24.4172C16.1747 23.8334 15.4938 23.0037 15.0917 22.033C14.6896 21.0623 14.5844 19.9941 14.7894 18.9636C14.9943 17.9331 15.5003 16.9865 16.2433 16.2435C16.9862 15.5005 17.9328 14.9946 18.9634 14.7896C19.9939 14.5846 21.062 14.6898 22.0328 15.0919C23.0035 15.494 23.8332 16.1749 24.417 17.0485C25.0007 17.9222 25.3123 18.9493 25.3123 20C25.3123 21.409 24.7526 22.7602 23.7563 23.7565C22.76 24.7528 21.4087 25.3125 19.9998 25.3125Z" fill="black"/>
</svg>
